<svg id="Слой_1" data-name="Слой 1" xmlns="http://www.w3.org/2000/svg" viewBox="0 0 151.63 48.07"><defs><style>.cls-2{fill:#003525}</style></defs><path fill="#003526" d="M0 21.68h151.62v.58H0z"/><path class="cls-2" d="M76.73 41.26h-.56v1.58h.56a.74.74 0 0 0 .83-.79.76.76 0 0 0-.83-.79zm10.9.04h-.02l-.12.36-.69 1.74h1.7l-.74-1.74-.13-.36zm-3.92-.04h-.56v1.58h.56a.74.74 0 0 0 .83-.79.76.76 0 0 0-.83-.79zM96 41.21c-.66 0-1.34.5-1.34 1.64s.67 1.63 1.34 1.63 1.34-.49 1.34-1.63-.68-1.64-1.34-1.64zm16.9.79a4.18 4.18 0 0 1-.48 2.41h1.94v-3.15h-1.46zm-21.24.92h-.56v1.52h.55c.79 0 1-.43 1-.77s-.23-.75-.99-.75zm-42.47.02h-.61v1.5h.58c.32 0 .92-.06.92-.76 0-.46-.37-.74-.89-.74zm.81-1.03c0-.46-.35-.65-.77-.65h-.62v1.38h.61a.7.7 0 0 0 .78-.73zM5.55 42.94h-.62v1.5h.58c.32 0 .92-.06.92-.76 0-.46-.37-.74-.88-.74zm.77-1.03c0-.46-.35-.65-.77-.65h-.62v1.38h.61a.7.7 0 0 0 .78-.73zm22.71-.61h-.01l-.13.36-.69 1.74h1.71l-.74-1.74-.14-.36zm7.8-.09c-.66 0-1.34.5-1.34 1.64s.67 1.63 1.34 1.63 1.34-.49 1.34-1.63-.67-1.64-1.34-1.64zm8.17 0c-.66 0-1.34.5-1.34 1.64s.67 1.63 1.34 1.63 1.34-.49 1.34-1.63-.68-1.64-1.34-1.64zm-25.82 0c-.66 0-1.34.5-1.34 1.64s.67 1.63 1.34 1.63 1.34-.49 1.34-1.63-.68-1.64-1.34-1.64zm105.35 1.73h-.61v1.5h.58c.32 0 .92-.06.92-.76-.01-.46-.42-.74-.89-.74zm20.19-.12h-.6v1.63h.69a.8.8 0 0 0 .9-.81c-.01-.77-.71-.82-.99-.82z"/><path class="cls-2" d="M0 37.63v10.44h151.62V37.63zm13.62 2.53H14v.44h-.38zm-1.25 0h.38v.44h-.38zm-6.82 4.6h-1v-3.81h1c.79 0 1.12.44 1.12 1a.85.85 0 0 1-.66.86.91.91 0 0 1 .77.9c.03 1.03-1.04 1.05-1.22 1.05zm5.43-.1a3.8 3.8 0 0 1-1.06.15 1.76 1.76 0 0 1-1.81-1.89 1.82 1.82 0 0 1 1.85-2 2.68 2.68 0 0 1 1 .15v.33a2.46 2.46 0 0 0-.91-.16 1.54 1.54 0 0 0-1.5 1.7A1.47 1.47 0 0 0 10 44.49a2.8 2.8 0 0 0 1-.18zm3.32.1h-2v-3.81h1.9v.31h-1.49v1.38h1.42v.31h-1.42v1.5h1.59zm4.87 0a1.73 1.73 0 0 1-1.73-1.94 1.74 1.74 0 1 1 3.45 0 1.73 1.73 0 0 1-1.71 1.98zm5.74 0a2.35 2.35 0 0 1-1-.24v-.34a2.14 2.14 0 0 0 1 .27c.56 0 1-.27 1-.73s-.19-.84-1-.84h-.46v-.31h.45c.8 0 .9-.47.9-.78s-.37-.62-.89-.62a2.35 2.35 0 0 0-.91.21v-.34a2.66 2.66 0 0 1 .94-.18c.83 0 1.28.4 1.28.95a.85.85 0 0 1-.62.9.92.92 0 0 1 .75 1c-.03.79-.78 1.09-1.44 1.09zm5.56 0L30 43.7h-1.91l-.42 1.05h-.39l1.51-3.81h.47l1.61 3.81zm3.62-3.5h-1.58v3.5h-.36v-3.81h2zm2.73 3.54a1.73 1.73 0 0 1-1.73-1.94 1.74 1.74 0 1 1 3.45 0 1.73 1.73 0 0 1-1.71 1.94zm5.4-3.54H41.1v3.5h-.36v-3.5H39.6v-.31h2.64zM45 44.8a1.73 1.73 0 0 1-1.73-1.94 1.74 1.74 0 1 1 3.45 0A1.73 1.73 0 0 1 45 44.8zm4.21 0h-1v-3.85h1c.79 0 1.12.44 1.12 1a.85.85 0 0 1-.66.86.91.91 0 0 1 .77.9c.02 1.03-1.06 1.05-1.23 1.05zm5.09 0l-1.91-1.92v1.92H52v-3.85h.36v1.74l1.75-1.74h.46l-1.85 1.8 2.06 2zm3.77 0h-2v-3.85H58v.31h-1.53v1.38h1.42v.31h-1.42v1.5h1.59zm6.21 0h-.36v-3.37l-.19.36-1.86 3h-.41v-3.84h.36v3.32l.21-.39 1.84-2.94h.41zm6.37 0h-.36v-3.5h-2v3.5h-.36v-3.85h2.71zm3.7 0h-2v-3.85h1.85v.31h-1.45v1.38h1.42v.31h-1.42v1.5h1.59zm2.46-1.61h-.63v1.61h-.36v-3.85h1a1.1 1.1 0 1 1 0 2.2zm4.51 1.61h-2v-3.85h1.85v.31h-1.45v1.38h1.42v.31h-1.42v1.5h1.6zm2.46-1.61h-.63v1.61h-.36v-3.85h1a1.1 1.1 0 1 1 0 2.2zm5.3 1.61l-.44-1.05h-1.96l-.42 1.05h-.39l1.51-3.81h.47l1.61 3.81zm2.65 0h-1v-3.85h2v.31H91.1v1.35h.65c1.12 0 1.24.76 1.24 1.07.01.7-.5 1.08-1.26 1.08zm4.27 0a1.73 1.73 0 0 1-1.73-1.94 1.74 1.74 0 1 1 3.45 0A1.73 1.73 0 0 1 96 44.8zm5.4-3.54h-1.14v3.5h-.36v-3.5h-1.14v-.31h2.64zm3.56 3.5l-1.91-1.92v1.92h-.36v-3.81h.31v1.74l1.75-1.74h.46l-1.85 1.8 2.06 2zm3.77 0h-2v-3.81h1.85v.31h-1.49v1.38h1.42v.31h-1.42v1.5h1.59zm6.43.83h-.36v-.83H112v.83h-.36v-1.15h.36a3.79 3.79 0 0 0 .53-2.45v-1h2.18v3.5h.44zm2.41-2.44h-.63v1.61h-.36v-3.81h1a1.1 1.1 0 1 1 0 2.2zm4.51 1.61h-2v-3.81H122v.31h-1.49v1.38h1.42v.31h-1.42v1.5h1.6zm2.46 0h-1v-3.81h1c.8 0 1.12.44 1.12 1a.85.85 0 0 1-.66.86.91.91 0 0 1 .77.9c.03 1.03-1.05 1.05-1.23 1.05zm4.76 0h-2v-3.81h1.85v.31h-1.49v1.38h1.42v.31h-1.42v1.5h1.59zm4.09-.1a3.8 3.8 0 0 1-1.06.15 1.76 1.76 0 0 1-1.81-1.89 1.82 1.82 0 0 1 1.85-2 2.7 2.7 0 0 1 1 .15v.33a2.46 2.46 0 0 0-.91-.16 1.54 1.54 0 0 0-1.5 1.7 1.47 1.47 0 0 0 1.47 1.57 2.8 2.8 0 0 0 1-.18zm4.18.1h-.36v-3.33l-.19.36-1.86 3h-.41v-3.84h.36v3.32l.21-.39 1.84-2.94h.41zm4.44 0h-.36v-1.82h-2v1.82h-.36v-3.81h.36v1.68h2v-1.68h.35zm2.9 0h-1.16v-3.81h.36v1.56h.61c.23 0 1.36 0 1.36 1.12a1.13 1.13 0 0 1-1.17 1.13zm2.14 0h-.36v-3.81h.36z"/><path class="cls-2" d="M125.3 41.91c0-.46-.35-.65-.77-.65h-.62v1.38h.61a.7.7 0 0 0 .78-.73zm-7.8-.65h-.56v1.58h.56a.74.74 0 0 0 .83-.79.76.76 0 0 0-.83-.79zM69.4 13.92l3.21 5.55L71 22.25h-8l7.2-12.49.8 1.39zM79.82 7L79 8.37l1.6 2.78-6.39 11.1h14.43z"/><path d="M75.81 19.47l-1.6 2.78H71l3.21-5.55zm4.81-2.78L79 19.47l1.6 2.78h3.21zM75.81 2.82l-6.41 11.1L71 16.7l3.21-5.56 3.21 5.55 3.21-5.55zM24.67 33.18a7.72 7.72 0 0 1-1.23.26 9.8 9.8 0 0 1-1.24.08 4.46 4.46 0 0 1-3.2-1.07 3.66 3.66 0 0 1-.2-4.88 4.31 4.31 0 0 1 3.36-1.22 10.25 10.25 0 0 1 1.44.09 10 10 0 0 1 1 .22v2a3.85 3.85 0 0 0-1.41-.31 1.75 1.75 0 0 0-1.24.44 1.72 1.72 0 0 0 0 2.36 1.71 1.71 0 0 0 1.24.44 3.35 3.35 0 0 0 .65-.07 4 4 0 0 0 .83-.29zm8.78.19h-3.3v-2.53H29v2.52h-3.3v-6.85H29v2.37h1.18v-2.37h3.29zm9.41-3.43a3.24 3.24 0 0 1-1.14 2.62 4.68 4.68 0 0 1-3.11 1 4.7 4.7 0 0 1-3.11-1 3.24 3.24 0 0 1-1.14-2.63 3.24 3.24 0 0 1 1.14-2.62 4.68 4.68 0 0 1 3.11-1 4.7 4.7 0 0 1 3.11 1 3.24 3.24 0 0 1 1.14 2.63zm-3.53 0a4.33 4.33 0 0 0-.09-1.07q-.16-.55-.63-.55a.63.63 0 0 0-.63.54 4.39 4.39 0 0 0-.09 1.09A4.32 4.32 0 0 0 38 31a.63.63 0 0 0 1.26 0 4.41 4.41 0 0 0 .07-1.06zm22.39 3.43h-3.63l-1.88-3h-.05v3h-3.24v-6.86h3.24v3h.05l1.87-3h3.63l-2.35 3.36zm8.89-3.43a3.24 3.24 0 0 1-1.14 2.62 5.51 5.51 0 0 1-6.21 0 3.24 3.24 0 0 1-1.14-2.63 3.24 3.24 0 0 1 1.14-2.62 5.51 5.51 0 0 1 6.21 0 3.24 3.24 0 0 1 1.14 2.63zm-3.53 0a4.33 4.33 0 0 0-.08-1.07.63.63 0 0 0-1.26 0 4.39 4.39 0 0 0-.09 1.09 4.32 4.32 0 0 0 .08 1.04.63.63 0 0 0 1.27 0 4.41 4.41 0 0 0 .08-1.06zm-50.95 1.68l-.4.1a5.82 5.82 0 0 1-1.14.1 2.08 2.08 0 0 1-1.36-.37.91.91 0 0 1-.31-.72h4.58v-.59a3.55 3.55 0 0 0-1.31-3.06 4.21 4.21 0 0 0-2.56-.73 4.25 4.25 0 0 0-2.86.94 3.15 3.15 0 0 0-1.1 2.52 3.64 3.64 0 0 0 .78 2.39 4.23 4.23 0 0 0 3.46 1.31 13 13 0 0 0 1.53-.1 11.1 11.1 0 0 0 1.56-.28zm-3.21-2.42a1.33 1.33 0 0 1 .34-1 .75.75 0 0 1 .51-.18.72.72 0 0 1 .56.25 1.45 1.45 0 0 1 .29 1v.12h-1.7zM1.47 26.51v4.32H0l1.46 2.53a2.9 2.9 0 0 0 2.9-2.9v-2h1.13v4.89h3.3v-6.84zm88.75 6.86h-3.29v-4.89h-1.18v4.89h-3.3v-6.86h7.77zm27.69 0h-3.62l-1.88-3h-.05v3h-3.24v-6.86h3.24v3h.05l1.87-3h3.63l-2.35 3.36zm7.09-.19a7.72 7.72 0 0 1-1.23.26 9.8 9.8 0 0 1-1.24.08 4.46 4.46 0 0 1-3.2-1.07 3.66 3.66 0 0 1-.2-4.88 4.3 4.3 0 0 1 3.36-1.22 10.25 10.25 0 0 1 1.44.09 10 10 0 0 1 1 .22v2a3.85 3.85 0 0 0-1.41-.31 1.75 1.75 0 0 0-1.24.44 1.72 1.72 0 0 0 0 2.36 1.71 1.71 0 0 0 1.24.44 3.35 3.35 0 0 0 .65-.07 4 4 0 0 0 .83-.29zm4.18.19h-2.85v-2.53h2.85zm10.02-3.31a3.54 3.54 0 0 1-1 2.68 2.82 2.82 0 0 1-2 .78 2.39 2.39 0 0 1-2.09-1v3.74h-3.29v-9.75h3.06v1.16h.05a2.24 2.24 0 0 1 2.17-1.32 3 3 0 0 1 2.05.73 3.83 3.83 0 0 1 1.05 2.98zm-3.53 0a2.69 2.69 0 0 0-.13-.92.72.72 0 0 0-1.39 0 3.31 3.31 0 0 0 0 1.84.72.72 0 0 0 1.39 0 2.67 2.67 0 0 0 .13-.98zm15.95-.12a3.94 3.94 0 0 1-.92 2.86 2.34 2.34 0 0 1-1.74.72 2.48 2.48 0 0 1-.85-.16 2.34 2.34 0 0 1-.8-.5v3.36H144v-3.35a2.33 2.33 0 0 1-.8.5 2.49 2.49 0 0 1-.85.15 2.32 2.32 0 0 1-1.73-.71 4 4 0 0 1-.93-2.88 3.94 3.94 0 0 1 .92-2.86 2.34 2.34 0 0 1 1.74-.72 2.48 2.48 0 0 1 .85.16 2.35 2.35 0 0 1 .8.5v-3.22h3.29V27a2.33 2.33 0 0 1 .8-.5 2.5 2.5 0 0 1 .85-.15 2.32 2.32 0 0 1 1.73.71 4 4 0 0 1 .95 2.88zm-7.37 1.28v-2.56a.81.81 0 0 0-.32-.25.9.9 0 0 0-.29-.05.55.55 0 0 0-.48.36 2.92 2.92 0 0 0-.18 1.22 3.86 3.86 0 0 0 .1 1q.16.55.56.55a.89.89 0 0 0 .29-.05.8.8 0 0 0 .32-.22zm4.13-1.28a3.87 3.87 0 0 0-.1-1q-.16-.55-.56-.55a.89.89 0 0 0-.29.05.81.81 0 0 0-.32.25v2.56a.8.8 0 0 0 .32.25.89.89 0 0 0 .29.05.55.55 0 0 0 .48-.36 2.91 2.91 0 0 0 .18-1.25zm-41.91 1.78a5.82 5.82 0 0 1-1.14.1 2.08 2.08 0 0 1-1.36-.37.91.91 0 0 1-.31-.72h4.58v-.59a3.55 3.55 0 0 0-1.31-3.06 4.84 4.84 0 0 0-5.43.21 3.16 3.16 0 0 0-1.1 2.52 3.64 3.64 0 0 0 .78 2.39 4.23 4.23 0 0 0 3.46 1.31 13 13 0 0 0 1.53-.1 11.1 11.1 0 0 0 1.56-.29l-.87-1.51zm-2.81-2.51a1.33 1.33 0 0 1 .34-1 .75.75 0 0 1 .51-.18.72.72 0 0 1 .56.25 1.45 1.45 0 0 1 .29 1v.12h-1.7zm-11.45-2.7v4.32h-1.46l1.46 2.53a2.9 2.9 0 0 0 2.9-2.9v-2h1.12v4.89h3.3v-6.84zm-40.6 6.86h-2.62v-3.84h-.04l-1.73 3.84h-3.07v-6.86h2.62v3.92h.04l1.74-3.92h3.06v6.86zm-5.89-8.76a1.51 1.51 0 0 0 .61.76 3.31 3.31 0 0 0 3.1 0 1.5 1.5 0 0 0 .61-.76zm35.43 8.76h-2.62v-4.29h-.08l-1.23 4.29h-1.77l-1.23-4.29h-.08v4.29h-2.62v-6.86h3.92l.85 3h.08l.85-3h3.92z" fill="#38ad4a"/></svg>