<svg id="Слой_1" data-name="Слой 1" xmlns="http://www.w3.org/2000/svg" viewBox="0 0 151.4 48.07"><defs><style>.cls-1{fill:#178341}</style></defs><path class="cls-1" d="M6 42.76a.85.85 0 0 0 .66-.86c0-.52-.32-1-1.11-1h-1v3.81h1c.18 0 1.26 0 1.26-1.07a.91.91 0 0 0-.81-.88zm-1.12-1.52h.62c.42 0 .77.19.77.65a.7.7 0 0 1-.78.72h-.61zm.58 3.19h-.58v-1.5h.61c.51 0 .88.27.88.74 0 .7-.59.76-.92.76zm-5.5-22.75h151.47v.57H-.04zm76.72 19.25h-1v3.81H76v-1.61h.63a1.1 1.1 0 1 0 0-2.2zm-.07 1.89H76v-1.58h.56a.76.76 0 0 1 .83.79.74.74 0 0 1-.78.79zm11.11-1.89h-.47l-1.51 3.81h.39l.42-1.05h1.95l.44 1.05h.39zm-1.06 2.45l.69-1.74.12-.36.14.36.74 1.74zm-3.01-2.45h-1v3.81H83v-1.61h.63a1.1 1.1 0 1 0 0-2.2zm-.07 1.89H83v-1.58h.56a.76.76 0 0 1 .82.79.74.74 0 0 1-.8.79zm12.28-1.93a1.75 1.75 0 0 0-1.72 2 1.74 1.74 0 1 0 3.45 0 1.75 1.75 0 0 0-1.73-2zm0 3.58c-.66 0-1.34-.49-1.34-1.63s.67-1.64 1.34-1.64 1.34.5 1.34 1.64-.68 1.63-1.34 1.63zm18.7-.04v-3.5h-2.18v1a3.79 3.79 0 0 1-.53 2.45h-.32v1.14h.36v-.83h2.75v.83h.36v-1.09zm-.36 0h-1.94a4.17 4.17 0 0 0 .48-2.41v-.78h1.46zm-22.58-1.84H91v-1.35h1.67v-.31h-2v3.81h1c.76 0 1.27-.38 1.27-1.08-.08-.31-.21-1.07-1.32-1.07zm-.1 1.83H91v-1.51h.56c.76 0 .95.39.95.76s-.2.76-.99.76zM49.6 42.76a.85.85 0 0 0 .66-.86c0-.52-.32-1-1.11-1h-1v3.81h1c.18 0 1.26 0 1.26-1.07a.91.91 0 0 0-.81-.88zm-1.11-1.52h.62c.42 0 .77.19.77.65a.7.7 0 0 1-.78.72h-.61zm.58 3.19h-.58v-1.5h.61c.51 0 .88.27.88.74.02.7-.6.76-.92.76zm-19.89-3.5h-.47l-1.51 3.81h.39l.41-1.05h2l.44 1.05h.39zm-1.05 2.45l.69-1.74.12-.36.14.36.74 1.74zm8.62-2.49a1.75 1.75 0 0 0-1.72 2 1.74 1.74 0 1 0 3.45 0 1.75 1.75 0 0 0-1.73-2zm0 3.58c-.66 0-1.34-.49-1.34-1.63s.67-1.64 1.34-1.64 1.34.5 1.34 1.64-.68 1.63-1.34 1.63zm8.15-3.58a1.75 1.75 0 0 0-1.72 2 1.74 1.74 0 1 0 3.45 0 1.75 1.75 0 0 0-1.73-2zm0 3.58c-.66 0-1.34-.49-1.34-1.63s.67-1.64 1.34-1.64 1.34.5 1.34 1.64-.67 1.63-1.34 1.63zm-25.79-3.58a1.75 1.75 0 0 0-1.72 2 1.74 1.74 0 1 0 3.45 0 1.75 1.75 0 0 0-1.73-2zm0 3.58c-.66 0-1.34-.49-1.34-1.63s.67-1.64 1.34-1.64 1.34.5 1.34 1.64-.68 1.63-1.34 1.63zm125.43-1.98h-.61v-1.56h-.36v3.81h1.15a1.13 1.13 0 0 0 1.17-1.13c0-1.12-1.13-1.12-1.35-1.12zm.08 1.94h-.69V42.8h.6c.31 0 1 .05 1 .82a.8.8 0 0 1-.92.81zM13.57 40.15h.37v.44h-.37zm-1.25 0h.38v.44h-.38zm-1.39 4.48a3.8 3.8 0 0 1-1.05.15 1.76 1.76 0 0 1-1.81-1.89 1.82 1.82 0 0 1 1.85-2 2.68 2.68 0 0 1 1 .15v.33a2.45 2.45 0 0 0-.91-.16 1.53 1.53 0 0 0-1.5 1.7 1.47 1.47 0 0 0 1.47 1.57 2.79 2.79 0 0 0 1-.18zm3.31.11h-1.95v-3.81h1.85v.31h-1.49v1.38h1.42v.31h-1.42v1.5h1.59v.31zm10.6.04a2.35 2.35 0 0 1-1-.24v-.34a2.14 2.14 0 0 0 1 .26c.55 0 1-.26 1-.73s-.18-.84-1-.84h-.44v-.31h.45c.8 0 .9-.47.9-.78s-.37-.62-.89-.62a2.35 2.35 0 0 0-.91.21v-.34a2.66 2.66 0 0 1 .94-.18c.83 0 1.28.4 1.28.95a.85.85 0 0 1-.62.9.92.92 0 0 1 .75 1c-.05.76-.8 1.06-1.46 1.06zm9.18-3.54h-1.59v3.5h-.36v-3.81h1.95v.31zm8.13 0h-1.14v3.5h-.36v-3.5h-1.14v-.31h2.64v.31zm12.05 3.5l-1.91-1.92h-.01v1.92h-.36v-3.81h.36v1.74h.01l1.75-1.74h.45l-1.84 1.8 2.05 2.01h-.5zm3.76 0h-1.95v-3.81h1.85v.31h-1.49v1.38h1.41v.31h-1.41v1.5h1.59v.31zm6.2 0h-.36v-2.86l.02-.47h-.01l-.19.36-1.86 2.97h-.41v-3.81h.36v2.86l-.02.47h.01l.21-.39 1.84-2.94h.41v3.81zm6.37 0h-.36v-3.5h-1.99v3.5h-.36v-3.81h2.71v3.81zm3.69 0h-1.95v-3.81h1.85v.31h-1.49v1.38h1.42v.31h-1.42v1.5h1.59v.31zm6.97 0h-1.95v-3.81h1.84v.31h-1.49v1.38h1.42v.31h-1.42v1.5h1.6v.31zm20.06-3.5h-1.13v3.5h-.36v-3.5h-1.14v-.31h2.63v.31zm3.56 3.5l-1.9-1.92h-.02v1.92h-.36v-3.81h.36v1.74h.02l1.74-1.74h.46l-1.85 1.8 2.06 2.01h-.51zm3.77 0h-1.95v-3.81h1.84v.31h-1.49v1.38h1.42v.31h-1.42v1.5h1.6v.31zm13.34 0h-1.96v-3.81h1.85v.31h-1.49v1.38h1.42v.31h-1.42v1.5h1.6v.31zm7.21 0h-1.95v-3.81h1.85v.31h-1.49v1.38h1.42v.31h-1.42v1.5h1.59v.31zm4.08-.11a3.79 3.79 0 0 1-1.05.15 1.76 1.76 0 0 1-1.81-1.89 1.82 1.82 0 0 1 1.85-2 2.69 2.69 0 0 1 1 .15v.33a2.46 2.46 0 0 0-.91-.16 1.53 1.53 0 0 0-1.49 1.7 1.47 1.47 0 0 0 1.47 1.57 2.8 2.8 0 0 0 1-.18zm4.18.11h-.36v-2.86l.02-.47h-.02l-.19.36-1.86 2.97h-.41v-3.81h.37v2.86l-.03.47h.02l.21-.39 1.84-2.94h.41v3.81zm4.44 0h-.36v-1.82h-1.98v1.82h-.36v-3.81h.36v1.68h1.98v-1.68h.36v3.81zm4.67-3.81h.36v3.81h-.36zm-21.64 1.83a.85.85 0 0 0 .66-.86c0-.52-.32-1-1.12-1h-1v3.81h1c.18 0 1.26 0 1.26-1.07a.91.91 0 0 0-.8-.88zm-1.11-1.52h.62c.42 0 .77.19.77.65a.7.7 0 0 1-.78.72h-.61zm.58 3.19h-.58v-1.5h.61c.51 0 .88.27.88.74 0 .7-.6.76-.92.76zm-6.92-3.5h-1v3.81h.36v-1.61h.63a1.1 1.1 0 1 0 0-2.2zm-.07 1.89h-.56v-1.58h.56a.76.76 0 0 1 .83.79.74.74 0 0 1-.83.79z"/><path class="cls-1" d="M69.29 13.93l3.2 5.55-1.6 2.77h-8l7.2-12.48.8 1.39zM79.69 7l-.8 1.39 1.6 2.77-6.41 11.1H88.5z"/><path d="M75.69 19.48l-1.6 2.77h-3.2l3.2-5.55zm4.8-2.77l-1.6 2.77 1.6 2.77h3.2zm-4.8-13.87l-6.41 11.1 1.6 2.77 3.2-5.55 3.2 5.55 3.2-5.55zM24.6 33.18a7.71 7.71 0 0 1-1.23.26 9.79 9.79 0 0 1-1.24.08 4.46 4.46 0 0 1-3.2-1.07 3.66 3.66 0 0 1-.2-4.87 4.3 4.3 0 0 1 3.36-1.21 10.24 10.24 0 0 1 1.44.09 10 10 0 0 1 1 .22v2a3.85 3.85 0 0 0-1.41-.31 1.75 1.75 0 0 0-1.23.44 1.72 1.72 0 0 0 0 2.36 1.7 1.7 0 0 0 1.24.44 3.34 3.34 0 0 0 .65-.07 4 4 0 0 0 .83-.29zm8.77.18h-3.29v-2.52H28.9v2.52h-3.29v-6.85h3.29v2.36h1.18v-2.36h3.29zm9.4-3.42a3.24 3.24 0 0 1-1.14 2.62 4.67 4.67 0 0 1-3.1 1 4.69 4.69 0 0 1-3.1-1 3.23 3.23 0 0 1-1.14-2.63 3.24 3.24 0 0 1 1.14-2.62 4.67 4.67 0 0 1 3.1-1 4.69 4.69 0 0 1 3.1 1 3.23 3.23 0 0 1 1.14 2.63zm-3.53 0a4.33 4.33 0 0 0-.09-1.07q-.16-.55-.63-.55a.63.63 0 0 0-.63.54 4.39 4.39 0 0 0-.09 1.08 4.31 4.31 0 0 0 .1 1.06.63.63 0 0 0 1.25 0 4.41 4.41 0 0 0 .1-1.06zm22.37 3.42H58l-1.88-3h-.05v3h-3.25v-6.85h3.24v3h.05l1.87-3h3.63l-2.35 3.36zm8.88-3.42a3.24 3.24 0 0 1-1.14 2.62 5.51 5.51 0 0 1-6.2 0A3.23 3.23 0 0 1 62 29.94a3.24 3.24 0 0 1 1.14-2.62 5.51 5.51 0 0 1 6.2 0 3.24 3.24 0 0 1 1.15 2.62zm-3.53 0a4.33 4.33 0 0 0-.09-1.07.63.63 0 0 0-1.25 0 4.39 4.39 0 0 0-.09 1.08 4.31 4.31 0 0 0 .09 1.05.63.63 0 0 0 1.25 0 4.4 4.4 0 0 0 .13-1.06zm-50.89 1.68l-.4.1a5.81 5.81 0 0 1-1.14.1 2.07 2.07 0 0 1-1.36-.37.91.91 0 0 1-.31-.72h4.57v-.59a3.55 3.55 0 0 0-1.31-3.06 4.21 4.21 0 0 0-2.56-.73 4.24 4.24 0 0 0-2.86.94 3.15 3.15 0 0 0-1.1 2.52 3.64 3.64 0 0 0 .78 2.39 4.23 4.23 0 0 0 3.46 1.31 13 13 0 0 0 1.53-.1 11.09 11.09 0 0 0 1.55-.29zm-3.21-2.42a1.32 1.32 0 0 1 .34-1 .75.75 0 0 1 .51-.18.72.72 0 0 1 .56.25 1.45 1.45 0 0 1 .29 1v.12h-1.7zM1.42 26.51v4.31H0l1.46 2.53a2.9 2.9 0 0 0 2.9-2.9v-2h1.08v4.89h3.29v-6.83zm88.66 6.85h-3.29v-4.89h-1.17v4.89h-3.29v-6.85h7.76zm27.67 0h-3.62l-1.88-3h-.05v3H109v-6.85h3.24v3h.05l1.87-3h3.63l-2.35 3.36zm7.08-.18a7.71 7.71 0 0 1-1.23.26 9.79 9.79 0 0 1-1.24.08 4.46 4.46 0 0 1-3.2-1.07 3.66 3.66 0 0 1-.2-4.87 4.3 4.3 0 0 1 3.36-1.21 10.24 10.24 0 0 1 1.44.09 10 10 0 0 1 1 .22v2a3.85 3.85 0 0 0-1.41-.31 1.75 1.75 0 0 0-1.23.44 1.72 1.72 0 0 0 0 2.36 1.7 1.7 0 0 0 1.24.44 3.34 3.34 0 0 0 .65-.07 4 4 0 0 0 .83-.29zm4.17.18h-2.85v-2.52H129zm10-3.31a3.54 3.54 0 0 1-1 2.68 2.81 2.81 0 0 1-2 .78 2.39 2.39 0 0 1-2.09-1v3.74h-3.29v-9.74h3.06v1.16h.05a2.24 2.24 0 0 1 2.17-1.32 2.94 2.94 0 0 1 2.05.73 3.83 3.83 0 0 1 1.05 2.97zm-3.53 0a2.69 2.69 0 0 0-.13-.91.72.72 0 0 0-1.38 0 3.31 3.31 0 0 0 0 1.84.72.72 0 0 0 1.38 0 2.67 2.67 0 0 0 .15-.98zm15.96-.11a3.93 3.93 0 0 1-.91 2.86 2.34 2.34 0 0 1-1.74.72 2.47 2.47 0 0 1-.85-.16 2.34 2.34 0 0 1-.8-.5v3.36h-3.29v-3.36a2.32 2.32 0 0 1-.8.5 2.49 2.49 0 0 1-.85.15 2.32 2.32 0 0 1-1.72-.71 3.94 3.94 0 0 1-.93-2.87 3.93 3.93 0 0 1 .91-2.86 2.34 2.34 0 0 1 1.74-.72 2.47 2.47 0 0 1 .85.16 2.35 2.35 0 0 1 .8.5V23.8h3.29V27a2.33 2.33 0 0 1 .8-.5 2.5 2.5 0 0 1 .85-.15 2.32 2.32 0 0 1 1.72.71 4 4 0 0 1 .93 2.88zm-7.37 1.28v-2.56a.81.81 0 0 0-.32-.25.89.89 0 0 0-.29-.05.55.55 0 0 0-.48.36 2.92 2.92 0 0 0-.18 1.22 3.85 3.85 0 0 0 .1 1q.16.55.56.55a.89.89 0 0 0 .29-.05.8.8 0 0 0 .32-.22zm4.13-1.28a3.87 3.87 0 0 0-.1-1q-.16-.55-.56-.55a.89.89 0 0 0-.29.05.81.81 0 0 0-.32.25v2.56a.8.8 0 0 0 .32.25.88.88 0 0 0 .29.05.55.55 0 0 0 .48-.36 2.91 2.91 0 0 0 .18-1.25zm-41.87 1.77a5.81 5.81 0 0 1-1.14.1 2.07 2.07 0 0 1-1.36-.37.91.91 0 0 1-.31-.72h4.57v-.59a3.55 3.55 0 0 0-1.31-3.06 4.83 4.83 0 0 0-5.42.21 3.15 3.15 0 0 0-1.1 2.52 3.64 3.64 0 0 0 .78 2.39 4.22 4.22 0 0 0 3.46 1.31 13 13 0 0 0 1.53-.1 11.09 11.09 0 0 0 1.55-.29l-.87-1.51zm-2.81-2.51a1.32 1.32 0 0 1 .34-1 .75.75 0 0 1 .51-.18.72.72 0 0 1 .56.25 1.45 1.45 0 0 1 .29 1v.12h-1.7zm-11.44-2.69v4.31h-1.46l1.46 2.53a2.9 2.9 0 0 0 2.9-2.9v-2h1.12v4.89h3.29v-6.83zm-40.56 6.85h-2.62v-3.83h-.04l-1.73 3.83h-3.06v-6.85h2.62v3.92h.04l1.73-3.92h3.06v6.85zm-5.89-8.75a1.51 1.51 0 0 0 .61.76 3.3 3.3 0 0 0 3.1 0 1.5 1.5 0 0 0 .61-.76zM81 33.36h-2.59v-4.29h-.08l-1.23 4.29h-1.78l-1.22-4.29H74v4.28h-2.6v-6.84h3.92l.85 3h.08l.85-3H81z" fill="#38ad4a"/><path class="cls-1" d="M0 37.4h151.47v.57H0z"/></svg>