<svg id="Слой_1" data-name="Слой 1" xmlns="http://www.w3.org/2000/svg" viewBox="0 0 49.2 49.2"><defs><style>.cls-1{fill:none;}.cls-2{fill:#dcddde;}</style></defs><title>Знак_Елочки в круге_наверх_3</title><rect class="cls-1" width="49.2" height="49.2"/><path class="cls-2" d="M24.6,2.68A21.92,21.92,0,1,0,46.52,24.6,21.94,21.94,0,0,0,24.6,2.68Zm0,42.23A20.32,20.32,0,1,1,44.92,24.6,20.34,20.34,0,0,1,24.6,44.92Z"/><polygon class="cls-2" points="36.53 38.2 24.6 27.85 12.67 38.2 12.67 31.22 24.6 20.86 36.53 31.21 36.53 38.2"/><polygon class="cls-2" points="36.53 28.33 24.6 17.98 12.67 28.33 12.67 21.36 24.6 11 36.53 21.35 36.53 28.33"/></svg>