<svg id="Слой_1" data-name="Слой 1" xmlns="http://www.w3.org/2000/svg" viewBox="0 0 170.08 56.69"><defs><style>.cls-1{fill:#2cb34a;}.cls-2{fill:#178341;}</style></defs><title>Лого ЛКС</title><polygon class="cls-1" points="80.06 15.29 90.02 15.29 87.53 11.56 90.01 11.56 85.04 4.09 80.06 11.56 82.55 11.56 80.06 15.29"/><path class="cls-2" d="M8.38,20.77V21c0,.76-.05,2.06-.12,2.73a4.34,4.34,0,0,1-1,2.7,3.43,3.43,0,0,1-2.56.89c-.33,0-.36-.15-.41-.34l-.43-1.55A.3.3,0,0,1,4,25l.15,0A1.85,1.85,0,0,0,5,24.6a3.44,3.44,0,0,0,.64-2.47l0-1.22H5.2c-.15,0-.24,0-.24-.22V18.75c0-.21.12-.24.24-.24h7.43c.26,0,.22.1.22.29v5.77h.52c.15,0,.24,0,.24.22v2c0,.22-.09.22-.24.22H10c-.17,0-.26,0-.26-.22v-6Z"/><path class="cls-2" d="M22.32,26c.09.15.07.21-.12.33a6,6,0,0,1-3.36,1c-2.85,0-4.31-1.68-4.31-4.46s1.58-4.6,4.22-4.6,3.85,1.77,3.85,4.93c0,.26-.1.24-.33.24H17.47c.1,1.2.58,1.67,1.44,1.67a4,4,0,0,0,2.21-.64c.22-.12.31-.07.41.12Zm-2.61-4.43c-.07-1.12-.39-1.44-1.06-1.44s-1,.36-1.17,1.44Z"/><path class="cls-2" d="M30.71,26c.09.22.1.28-.05.45a4.81,4.81,0,0,1-3,.86c-2.73,0-4.17-1.73-4.17-4.4s1.61-4.67,4.45-4.67a3.69,3.69,0,0,1,2.58.76.44.44,0,0,1,.14.43v2.13c0,.19,0,.24-.22.24H28.41c-.17,0-.22-.05-.22-.24v-1l-.19,0c-.94,0-1.39.6-1.39,2.33S27.14,25,28,25a4.78,4.78,0,0,0,1.65-.48c.29-.12.38-.19.5.1Z"/><path class="cls-2" d="M37.1,18.75c0-.22.17-.24.29-.24h3.31c.12,0,.24,0,.24.24v1.94c0,.19-.09.22-.24.22h-.52v3.67h.52c.19,0,.24.05.24.24v1.94c0,.22-.09.22-.24.22H37.29c-.17,0-.19-.07-.19-.22V23.71H35.38v3.14c0,.15-.05.14-.17.14H31.78c-.16,0-.24,0-.24-.22V24.83c0-.19.05-.24.24-.24h.51V20.91h-.51c-.16,0-.24,0-.24-.22V18.75c0-.21.12-.24.24-.24h3.33c.15,0,.27,0,.27.24v2.76H37.1Z"/><path class="cls-2" d="M46.06,27.28c-2.75,0-4.21-1.8-4.21-4.55s1.51-4.52,4.22-4.52,4.17,1.84,4.17,4.55S48.72,27.28,46.06,27.28Zm0-7c-.72,0-1.13.51-1.13,2.45s.41,2.42,1.13,2.42,1.15-.53,1.15-2.44S46.77,20.31,46,20.31Z"/><path class="cls-2" d="M52.16,27c-.19,0-.24,0-.24-.24V20.91H51.4c-.15,0-.24,0-.24-.22V18.75c0-.21.12-.24.24-.24h3.12c.1,0,.17,0,.17.12v3.05c0,.5,0,1.15-.07,1.65h.05a14.8,14.8,0,0,1,1-2L57,18.87a.57.57,0,0,1,.53-.36h2.39c.14,0,.22,0,.22.21v5.85h.52c.15,0,.24,0,.24.22v2c0,.22-.09.22-.24.22H57.53c-.15,0-.21,0-.21-.22v-3c0-.43.05-1.24.09-1.6h-.07a17.16,17.16,0,0,1-1.08,2.32l-1.18,2.27a.49.49,0,0,1-.46.26Zm6.56-11.9c.19,0,.22.17.22.33a1.7,1.7,0,0,1-.17.7,2.31,2.31,0,0,1-.81,1,3.61,3.61,0,0,1-2.15.62,3.47,3.47,0,0,1-2.11-.62,2.36,2.36,0,0,1-.94-1.51c-.09-.41,0-.53.19-.57l1.41-.24a.33.33,0,0,1,.39.24l0,.1a1.62,1.62,0,0,0,.33.7,1.14,1.14,0,0,0,1.44,0,1.64,1.64,0,0,0,.33-.7l0-.1a.33.33,0,0,1,.38-.26Z"/><path class="cls-2" d="M65.53,26.75c0,.24,0,.24-.17.24H62.7c-.17,0-.26,0-.26-.22V20.91h-.52c-.15,0-.24,0-.24-.22V18.75c0-.21.12-.24.24-.24h3.26c.19,0,.34,0,.34.24v2.68h.62a.78.78,0,0,0,.6-.19,1.41,1.41,0,0,0,.33-.76l.14-.58a2.4,2.4,0,0,1,.55-1.08,2.93,2.93,0,0,1,2.11-.74c.19,0,.38,0,.43.21l.39,1.61c0,.14,0,.31-.17.33l-.31.05a.86.86,0,0,0-.46.22,1.11,1.11,0,0,0-.21.43l-.21.62a1.48,1.48,0,0,1-.36.63,1.36,1.36,0,0,1-.58.33v.05A1.52,1.52,0,0,1,69,23a1.94,1.94,0,0,1,.43.84l.12.46a1.17,1.17,0,0,0,.26.58,1,1,0,0,0,.51.21l.21,0c.28.05.28.24.24.43L70.46,27c0,.19-.09.26-.52.26a3.25,3.25,0,0,1-2.23-.65,2.55,2.55,0,0,1-.62-1.3l-.16-.79a1.24,1.24,0,0,0-.27-.65.85.85,0,0,0-.62-.19h-.51Z"/><path class="cls-2" d="M75.68,27.28c-2.75,0-4.21-1.8-4.21-4.55S73,18.22,75.7,18.22s4.17,1.84,4.17,4.55S78.34,27.28,75.68,27.28Zm0-7c-.72,0-1.13.51-1.13,2.45s.41,2.42,1.13,2.42,1.15-.53,1.15-2.44S76.38,20.31,75.66,20.31Z"/><path class="cls-2" d="M90.38,18.51c.22,0,.31,0,.33.26l.45,5.8h.45c.15,0,.24,0,.24.22v2c0,.22-.09.22-.24.22H88.85c-.19,0-.33,0-.33-.26L88.44,22h-.1c-.12.69-.36,1.55-.48,2l-.48,1.67c-.05.19-.1.22-.34.22H85.57c-.24,0-.29,0-.34-.22l-.52-1.79A14.9,14.9,0,0,1,84.25,22h-.09l-.07,4.7c0,.26-.14.26-.33.26H81c-.15,0-.24,0-.24-.22v-2c0-.19.09-.22.24-.22h.45l.46-5.8c0-.24.1-.26.33-.26h2.56c.15,0,.29,0,.34.19L85.85,21a8.87,8.87,0,0,1,.41,1.77h.1a8.6,8.6,0,0,1,.39-1.63l.72-2.46c.05-.17.19-.19.34-.19Z"/><path class="cls-2" d="M101.85,20.69c0,.19-.09.22-.24.22h-.51v3.67h.51c.19,0,.24.05.24.24v1.94c0,.22-.09.22-.24.22H98.33c-.17,0-.26,0-.26-.22V20.95H96.44v5.8c0,.24,0,.24-.19.24H92.9c-.15,0-.24,0-.24-.22V24.83c0-.19.05-.24.24-.24h.52V20.91H92.9c-.15,0-.24,0-.24-.22V18.75c0-.21.12-.24.24-.24h8.7c.12,0,.24,0,.24.24Z"/><path class="cls-2" d="M106.91,20.77V21c0,.76-.05,2.06-.12,2.73a4.33,4.33,0,0,1-1,2.7,3.43,3.43,0,0,1-2.56.89c-.33,0-.36-.15-.41-.34l-.43-1.55a.3.3,0,0,1,.19-.39l.16,0a1.85,1.85,0,0,0,.89-.36,3.45,3.45,0,0,0,.64-2.47l0-1.22h-.5c-.15,0-.24,0-.24-.22V18.75c0-.21.12-.24.24-.24h7.43c.26,0,.22.1.22.29v5.77h.52c.15,0,.24,0,.24.22v2c0,.22-.09.22-.24.22h-3.35c-.17,0-.26,0-.26-.22v-6Z"/><path class="cls-2" d="M120.85,26c.09.15.07.21-.12.33a6,6,0,0,1-3.36,1c-2.85,0-4.31-1.68-4.31-4.46s1.58-4.6,4.22-4.6,3.85,1.77,3.85,4.93c0,.26-.1.24-.33.24H116c.1,1.2.58,1.67,1.44,1.67a4,4,0,0,0,2.21-.64c.22-.12.31-.07.41.12Zm-2.61-4.43c-.07-1.12-.4-1.44-1.06-1.44s-1,.36-1.17,1.44Z"/><path class="cls-2" d="M125.83,26.75c0,.24,0,.24-.17.24H123c-.17,0-.26,0-.26-.22V20.91h-.52c-.15,0-.24,0-.24-.22V18.75c0-.21.12-.24.24-.24h3.26c.19,0,.34,0,.34.24v2.68h.62a.78.78,0,0,0,.6-.19,1.41,1.41,0,0,0,.33-.76l.14-.58a2.42,2.42,0,0,1,.55-1.08,2.93,2.93,0,0,1,2.11-.74c.19,0,.38,0,.43.21l.4,1.61a.24.24,0,0,1-.17.33l-.31.05a.85.85,0,0,0-.46.22,1.1,1.1,0,0,0-.21.43l-.21.62a1.47,1.47,0,0,1-.36.63,1.35,1.35,0,0,1-.58.33v.05a1.51,1.51,0,0,1,.64.39,1.94,1.94,0,0,1,.43.84l.12.46a1.18,1.18,0,0,0,.26.58,1,1,0,0,0,.52.21l.21,0c.28.05.28.24.24.43L130.76,27c0,.19-.09.26-.52.26a3.26,3.26,0,0,1-2.23-.65,2.56,2.56,0,0,1-.62-1.3l-.15-.79a1.25,1.25,0,0,0-.27-.65.86.86,0,0,0-.62-.19h-.52Z"/><path class="cls-2" d="M139,26c.09.22.1.28-.05.45a4.81,4.81,0,0,1-3,.86c-2.73,0-4.17-1.73-4.17-4.4s1.61-4.67,4.45-4.67a3.69,3.69,0,0,1,2.58.76.44.44,0,0,1,.14.43v2.13c0,.19,0,.24-.22.24h-2.06c-.17,0-.22-.05-.22-.24v-1l-.19,0c-.94,0-1.39.6-1.39,2.33s.53,2.18,1.41,2.18a4.76,4.76,0,0,0,1.65-.48c.29-.12.38-.19.5.1Z"/><path class="cls-2" d="M142.06,27.44a2.15,2.15,0,1,1,2.16-2.16A2.14,2.14,0,0,1,142.06,27.44Z"/><path class="cls-2" d="M148.07,18.48c.19,0,.24.1.38.48a2.79,2.79,0,0,1,2-.74c2.39,0,3.5,1.82,3.5,4.52,0,3-1.1,4.58-3.67,4.58a3.12,3.12,0,0,1-1.32-.34v1.08h.51c.19,0,.24.05.24.22v2c0,.19-.05.24-.24.24h-4.17c-.19,0-.24-.05-.24-.24v-2c0-.17.05-.22.24-.22h.53v-6.7a2,2,0,0,0-.05-.45h-.6c-.19,0-.24,0-.24-.22v-2c0-.17,0-.24.24-.24Zm.86,6.71a2.21,2.21,0,0,0,.88.17c.74,0,1.13-.46,1.13-2.58,0-1.82-.45-2.4-1-2.4a1.62,1.62,0,0,0-1,.41Z"/><path class="cls-2" d="M162,14.44c.17,0,.19.09.19.22v4.07a2.81,2.81,0,0,1,3.19.45,5.06,5.06,0,0,1,.94,3.4,6.24,6.24,0,0,1-.72,3.47,2.41,2.41,0,0,1-2.27,1.13,3,3,0,0,1-1.15-.21v1.12h.53c.15,0,.24,0,.24.22v2c0,.19-.05.24-.24.24h-4.17c-.19,0-.24-.05-.24-.24v-2c0-.19.09-.22.24-.22h.55V27a2.88,2.88,0,0,1-1.1.21A2.5,2.5,0,0,1,155.62,26a6.33,6.33,0,0,1-.7-3.38A4.9,4.9,0,0,1,156,19.2a2.54,2.54,0,0,1,1.89-.77,2.27,2.27,0,0,1,1.17.31V16.84h-.52c-.15,0-.24,0-.24-.22V14.68c0-.21.12-.24.24-.24Zm-2.7,6.25a1.32,1.32,0,0,0-.75-.24.74.74,0,0,0-.77.51,4.69,4.69,0,0,0-.17,1.68,8.7,8.7,0,0,0,.17,1.85.88.88,0,0,0,.89.69,1.47,1.47,0,0,0,.64-.17ZM161.94,25a1.94,1.94,0,0,0,.72.17c.5,0,.69-.29.81-.69a9.48,9.48,0,0,0,.17-1.92,4.61,4.61,0,0,0-.17-1.61.69.69,0,0,0-.74-.51,1.43,1.43,0,0,0-.79.24Z"/><polygon class="cls-1" points="26.6 33.94 21.62 41.4 22.25 41.4 27.22 33.94 26.6 33.94"/><polygon class="cls-1" points="27.84 33.94 22.87 41.4 23.49 41.4 28.46 33.94 27.84 33.94"/><polygon class="cls-1" points="29.08 33.94 24.11 41.4 24.73 41.4 29.71 33.94 29.08 33.94"/><polygon class="cls-1" points="39.03 33.94 34.06 41.4 34.68 41.4 39.65 33.94 39.03 33.94"/><polygon class="cls-1" points="24.11 33.94 19.14 41.4 19.76 41.4 24.73 33.94 24.11 33.94"/><polygon class="cls-1" points="21.62 33.94 16.65 41.4 17.27 41.4 22.25 33.94 21.62 33.94"/><polygon class="cls-1" points="25.35 33.94 20.38 41.4 21 41.4 25.98 33.94 25.35 33.94"/><polygon class="cls-1" points="34.06 33.94 29.08 41.4 29.7 41.4 34.68 33.94 34.06 33.94"/><polygon class="cls-1" points="30.33 33.94 25.35 41.4 25.98 41.4 30.95 33.94 30.33 33.94"/><polygon class="cls-1" points="36.54 33.94 31.57 41.4 32.19 41.4 37.17 33.94 36.54 33.94"/><polygon class="cls-1" points="35.3 33.94 30.33 41.4 30.95 41.4 35.92 33.94 35.3 33.94"/><polygon class="cls-1" points="31.57 33.94 26.6 41.4 27.22 41.4 32.19 33.94 31.57 33.94"/><polygon class="cls-1" points="32.81 33.94 27.84 41.4 28.46 41.4 33.44 33.94 32.81 33.94"/><polygon class="cls-1" points="37.79 33.94 32.81 41.4 33.44 41.4 38.41 33.94 37.79 33.94"/><polygon class="cls-1" points="20.38 33.94 15.41 41.4 16.03 41.4 21 33.94 20.38 33.94"/><polygon class="cls-1" points="3.79 35.51 4.84 33.94 4.22 33.94 3.79 34.58 3.79 35.51"/><polygon class="cls-1" points="10.43 33.94 5.46 41.4 6.08 41.4 11.05 33.94 10.43 33.94"/><polygon class="cls-1" points="3.79 41.1 8.57 33.94 7.95 33.94 3.79 40.17 3.79 41.1"/><polygon class="cls-1" points="11.68 33.94 6.7 41.4 7.32 41.4 12.3 33.94 11.68 33.94"/><polygon class="cls-1" points="3.79 39.24 7.32 33.94 6.7 33.94 3.79 38.31 3.79 39.24"/><polygon class="cls-1" points="3.79 37.37 6.08 33.94 5.46 33.94 3.79 36.44 3.79 37.37"/><polygon class="cls-1" points="9.19 33.94 4.21 41.4 4.84 41.4 9.81 33.94 9.19 33.94"/><polygon class="cls-1" points="16.65 33.94 11.68 41.4 12.3 41.4 17.27 33.94 16.65 33.94"/><polygon class="cls-1" points="17.89 33.94 12.92 41.4 13.54 41.4 18.52 33.94 17.89 33.94"/><polygon class="cls-1" points="19.14 33.94 14.16 41.4 14.79 41.4 19.76 33.94 19.14 33.94"/><polygon class="cls-1" points="14.16 33.94 9.19 41.4 9.81 41.4 14.79 33.94 14.16 33.94"/><polygon class="cls-1" points="15.41 33.94 10.43 41.4 11.05 41.4 16.03 33.94 15.41 33.94"/><polygon class="cls-1" points="12.92 33.94 7.95 41.4 8.57 41.4 13.54 33.94 12.92 33.94"/><polygon class="cls-1" points="22.87 33.94 17.89 41.4 18.51 41.4 23.49 33.94 22.87 33.94"/><polygon class="cls-1" points="63.9 33.94 58.92 41.4 59.55 41.4 64.52 33.94 63.9 33.94"/><polygon class="cls-1" points="65.14 33.94 60.17 41.4 60.79 41.4 65.77 33.94 65.14 33.94"/><polygon class="cls-1" points="62.66 33.94 57.68 41.4 58.3 41.4 63.28 33.94 62.66 33.94"/><polygon class="cls-1" points="58.92 33.94 53.95 41.4 54.57 41.4 59.55 33.94 58.92 33.94"/><polygon class="cls-1" points="61.41 33.94 56.44 41.4 57.06 41.4 62.03 33.94 61.41 33.94"/><polygon class="cls-1" points="66.39 33.94 61.41 41.4 62.03 41.4 67.01 33.94 66.39 33.94"/><polygon class="cls-1" points="60.17 33.94 55.2 41.4 55.82 41.4 60.79 33.94 60.17 33.94"/><polygon class="cls-1" points="68.87 33.94 63.9 41.4 64.52 41.4 69.5 33.94 68.87 33.94"/><polygon class="cls-1" points="71.36 33.94 66.39 41.4 67.01 41.4 71.98 33.94 71.36 33.94"/><polygon class="cls-1" points="67.63 33.94 62.66 41.4 63.28 41.4 68.25 33.94 67.63 33.94"/><polygon class="cls-1" points="73.85 33.94 68.87 41.4 69.49 41.4 74.47 33.94 73.85 33.94"/><polygon class="cls-1" points="72.6 33.94 67.63 41.4 68.25 41.4 73.22 33.94 72.6 33.94"/><polygon class="cls-1" points="70.12 33.94 65.14 41.4 65.76 41.4 70.74 33.94 70.12 33.94"/><polygon class="cls-1" points="57.68 33.94 52.71 41.4 53.33 41.4 58.3 33.94 57.68 33.94"/><polygon class="cls-1" points="50.22 33.94 45.25 41.4 45.87 41.4 50.84 33.94 50.22 33.94"/><polygon class="cls-1" points="45.25 33.94 40.27 41.4 40.9 41.4 45.87 33.94 45.25 33.94"/><polygon class="cls-1" points="46.49 33.94 41.52 41.4 42.14 41.4 47.11 33.94 46.49 33.94"/><polygon class="cls-1" points="44.01 33.94 39.03 41.4 39.65 41.4 44.63 33.94 44.01 33.94"/><polygon class="cls-1" points="41.52 33.94 36.54 41.4 37.17 41.4 42.14 33.94 41.52 33.94"/><polygon class="cls-1" points="42.76 33.94 37.79 41.4 38.41 41.4 43.38 33.94 42.76 33.94"/><polygon class="cls-1" points="47.73 33.94 42.76 41.4 43.38 41.4 48.36 33.94 47.73 33.94"/><polygon class="cls-1" points="51.47 33.94 46.49 41.4 47.11 41.4 52.09 33.94 51.47 33.94"/><polygon class="cls-1" points="52.71 33.94 47.73 41.4 48.36 41.4 53.33 33.94 52.71 33.94"/><polygon class="cls-1" points="53.95 33.94 48.98 41.4 49.6 41.4 54.57 33.94 53.95 33.94"/><polygon class="cls-1" points="55.2 33.94 50.22 41.4 50.84 41.4 55.82 33.94 55.2 33.94"/><polygon class="cls-1" points="40.27 33.94 35.3 41.4 35.92 41.4 40.9 33.94 40.27 33.94"/><polygon class="cls-1" points="48.98 33.94 44 41.4 44.63 41.4 49.6 33.94 48.98 33.94"/><polygon class="cls-1" points="56.44 33.94 51.47 41.4 52.09 41.4 57.06 33.94 56.44 33.94"/><polygon class="cls-1" points="143.48 33.94 148.46 41.4 147.84 41.4 142.86 33.94 143.48 33.94"/><polygon class="cls-1" points="142.24 33.94 147.21 41.4 146.59 41.4 141.62 33.94 142.24 33.94"/><polygon class="cls-1" points="141 33.94 145.97 41.4 145.35 41.4 140.37 33.94 141 33.94"/><polygon class="cls-1" points="131.05 33.94 136.02 41.4 135.4 41.4 130.43 33.94 131.05 33.94"/><polygon class="cls-1" points="145.97 33.94 150.94 41.4 150.32 41.4 145.35 33.94 145.97 33.94"/><polygon class="cls-1" points="148.46 33.94 153.43 41.4 152.81 41.4 147.84 33.94 148.46 33.94"/><polygon class="cls-1" points="144.72 33.94 149.7 41.4 149.08 41.4 144.1 33.94 144.72 33.94"/><polygon class="cls-1" points="136.02 33.94 141 41.4 140.37 41.4 135.4 33.94 136.02 33.94"/><polygon class="cls-1" points="139.75 33.94 144.72 41.4 144.1 41.4 139.13 33.94 139.75 33.94"/><polygon class="cls-1" points="133.53 33.94 138.51 41.4 137.89 41.4 132.91 33.94 133.53 33.94"/><polygon class="cls-1" points="134.78 33.94 139.75 41.4 139.13 41.4 134.16 33.94 134.78 33.94"/><polygon class="cls-1" points="138.51 33.94 143.48 41.4 142.86 41.4 137.89 33.94 138.51 33.94"/><polygon class="cls-1" points="137.27 33.94 142.24 41.4 141.62 41.4 136.64 33.94 137.27 33.94"/><polygon class="cls-1" points="132.29 33.94 137.27 41.4 136.64 41.4 131.67 33.94 132.29 33.94"/><polygon class="cls-1" points="149.7 33.94 154.67 41.4 154.05 41.4 149.08 33.94 149.7 33.94"/><polygon class="cls-1" points="166.29 35.51 165.24 33.94 165.86 33.94 166.29 34.58 166.29 35.51"/><polygon class="cls-1" points="159.65 33.94 164.62 41.4 164 41.4 159.03 33.94 159.65 33.94"/><polygon class="cls-1" points="166.29 41.1 161.51 33.94 162.13 33.94 166.29 40.17 166.29 41.1"/><polygon class="cls-1" points="158.4 33.94 163.38 41.4 162.75 41.4 157.78 33.94 158.4 33.94"/><polygon class="cls-1" points="166.29 39.24 162.75 33.94 163.38 33.94 166.29 38.31 166.29 39.24"/><polygon class="cls-1" points="166.29 37.37 164 33.94 164.62 33.94 166.29 36.44 166.29 37.37"/><polygon class="cls-1" points="160.89 33.94 165.86 41.4 165.24 41.4 160.27 33.94 160.89 33.94"/><polygon class="cls-1" points="153.43 33.94 158.4 41.4 157.78 41.4 152.81 33.94 153.43 33.94"/><polygon class="cls-1" points="152.19 33.94 157.16 41.4 156.54 41.4 151.56 33.94 152.19 33.94"/><polygon class="cls-1" points="150.94 33.94 155.92 41.4 155.29 41.4 150.32 33.94 150.94 33.94"/><polygon class="cls-1" points="155.92 33.94 160.89 41.4 160.27 41.4 155.29 33.94 155.92 33.94"/><polygon class="cls-1" points="154.67 33.94 159.65 41.4 159.03 41.4 154.05 33.94 154.67 33.94"/><polygon class="cls-1" points="157.16 33.94 162.13 41.4 161.51 41.4 156.54 33.94 157.16 33.94"/><polygon class="cls-1" points="147.21 33.94 152.19 41.4 151.56 41.4 146.59 33.94 147.21 33.94"/><polygon class="cls-1" points="106.18 33.94 111.15 41.4 110.53 41.4 105.56 33.94 106.18 33.94"/><polygon class="cls-1" points="104.94 33.94 109.91 41.4 109.29 41.4 104.31 33.94 104.94 33.94"/><polygon class="cls-1" points="107.42 33.94 112.4 41.4 111.78 41.4 106.8 33.94 107.42 33.94"/><polygon class="cls-1" points="111.15 33.94 116.13 41.4 115.51 41.4 110.53 33.94 111.15 33.94"/><polygon class="cls-1" points="108.67 33.94 113.64 41.4 113.02 41.4 108.05 33.94 108.67 33.94"/><polygon class="cls-1" points="103.69 33.94 108.67 41.4 108.05 41.4 103.07 33.94 103.69 33.94"/><polygon class="cls-1" points="109.91 33.94 114.88 41.4 114.26 41.4 109.29 33.94 109.91 33.94"/><polygon class="cls-1" points="101.21 33.94 106.18 41.4 105.56 41.4 100.58 33.94 101.21 33.94"/><polygon class="cls-1" points="98.72 33.94 103.69 41.4 103.07 41.4 98.1 33.94 98.72 33.94"/><polygon class="cls-1" points="102.45 33.94 107.42 41.4 106.8 41.4 101.83 33.94 102.45 33.94"/><polygon class="cls-1" points="96.23 33.94 101.21 41.4 100.59 41.4 95.61 33.94 96.23 33.94"/><polygon class="cls-1" points="97.48 33.94 102.45 41.4 101.83 41.4 96.85 33.94 97.48 33.94"/><polygon class="cls-1" points="99.96 33.94 104.94 41.4 104.32 41.4 99.34 33.94 99.96 33.94"/><polygon class="cls-1" points="112.4 33.94 117.37 41.4 116.75 41.4 111.78 33.94 112.4 33.94"/><polygon class="cls-1" points="119.86 33.94 124.83 41.4 124.21 41.4 119.24 33.94 119.86 33.94"/><polygon class="cls-1" points="124.83 33.94 129.81 41.4 129.18 41.4 124.21 33.94 124.83 33.94"/><polygon class="cls-1" points="123.59 33.94 128.56 41.4 127.94 41.4 122.97 33.94 123.59 33.94"/><polygon class="cls-1" points="126.08 33.94 131.05 41.4 130.43 41.4 125.45 33.94 126.08 33.94"/><polygon class="cls-1" points="128.56 33.94 133.53 41.4 132.91 41.4 127.94 33.94 128.56 33.94"/><polygon class="cls-1" points="127.32 33.94 132.29 41.4 131.67 41.4 126.7 33.94 127.32 33.94"/><polygon class="cls-1" points="122.34 33.94 127.32 41.4 126.7 41.4 121.72 33.94 122.34 33.94"/><polygon class="cls-1" points="118.61 33.94 123.59 41.4 122.97 41.4 117.99 33.94 118.61 33.94"/><polygon class="cls-1" points="117.37 33.94 122.34 41.4 121.72 41.4 116.75 33.94 117.37 33.94"/><polygon class="cls-1" points="116.13 33.94 121.1 41.4 120.48 41.4 115.5 33.94 116.13 33.94"/><polygon class="cls-1" points="114.88 33.94 119.86 41.4 119.24 41.4 114.26 33.94 114.88 33.94"/><polygon class="cls-1" points="129.81 33.94 134.78 41.4 134.16 41.4 129.18 33.94 129.81 33.94"/><polygon class="cls-1" points="121.1 33.94 126.08 41.4 125.45 41.4 120.48 33.94 121.1 33.94"/><polygon class="cls-1" points="113.64 33.94 118.61 41.4 117.99 41.4 113.02 33.94 113.64 33.94"/><path class="cls-1" d="M86,45.29h-.6V47H86a.79.79,0,0,0,.89-.85A.82.82,0,0,0,86,45.29Z"/><polygon class="cls-1" points="97.7 45.34 97.68 45.34 97.55 45.72 96.81 47.58 98.64 47.58 97.85 45.72 97.7 45.34"/><path class="cls-1" d="M93.5,45.29h-.6V47h.6a.79.79,0,0,0,.88-.85A.81.81,0,0,0,93.5,45.29Z"/><path class="cls-1" d="M106.68,45.25c-.71,0-1.44.54-1.44,1.76s.72,1.75,1.44,1.75,1.43-.52,1.43-1.75S107.39,45.25,106.68,45.25Z"/><path class="cls-1" d="M124.79,46.13a4.48,4.48,0,0,1-.52,2.58h2.08V45.29h-1.56Z"/><path class="cls-1" d="M102,47.08h-.6v1.63H102c.85,0,1-.46,1-.82S102.84,47.08,102,47.08Z"/><path class="cls-1" d="M56.51,47.1h-.66v1.61h.62c.34,0,1-.06,1-.81C57.46,47.39,57.06,47.1,56.51,47.1Z"/><path class="cls-1" d="M57.34,46c0-.5-.37-.7-.82-.7h-.66v1.48h.65A.75.75,0,0,0,57.34,46Z"/><path class="cls-1" d="M9.73,47.1H9.07v1.61h.62c.34,0,1-.06,1-.81C10.68,47.39,10.28,47.1,9.73,47.1Z"/><path class="cls-1" d="M10.56,46c0-.5-.37-.7-.82-.7H9.07v1.48h.65A.75.75,0,0,0,10.56,46Z"/><polygon class="cls-1" points="34.9 45.34 34.88 45.34 34.76 45.72 34.02 47.58 35.84 47.58 35.05 45.72 34.9 45.34"/><path class="cls-1" d="M43.26,45.25c-.71,0-1.44.54-1.44,1.76s.72,1.75,1.44,1.75S44.7,48.23,44.7,47,44,45.25,43.26,45.25Z"/><path class="cls-1" d="M52,45.25c-.71,0-1.44.54-1.44,1.76s.72,1.75,1.44,1.75,1.43-.52,1.43-1.75S52.72,45.25,52,45.25Z"/><path class="cls-1" d="M24.34,45.25c-.71,0-1.44.54-1.44,1.76s.72,1.75,1.44,1.75,1.43-.52,1.43-1.75S25.05,45.25,24.34,45.25Z"/><path class="cls-1" d="M137.25,47.1h-.66v1.61h.62c.34,0,1-.06,1-.81C138.19,47.39,137.8,47.1,137.25,47.1Z"/><path class="cls-1" d="M158.89,47h-.65v1.74H159a.86.86,0,0,0,1-.87C159.94,47,159.22,47,158.89,47Z"/><path class="cls-1" d="M100,41.4l-5-7.46h2.49L95,30.21H75.09L72.6,33.94h2.49l-5,7.46H3.79V52.6H166.29V41.4ZM18.39,44.12h.4v.47h-.4Zm-1.34,0h.4v.47h-.4ZM9.74,49H8.69V45H9.78c.85,0,1.2.47,1.2,1a.92.92,0,0,1-.71.92v0a1,1,0,0,1,.82,1C11.09,49,9.94,49,9.74,49Zm5.82-.11a4.08,4.08,0,0,1-1.13.16,1.89,1.89,0,0,1-1.94-2,2,2,0,0,1,2-2.15,2.88,2.88,0,0,1,1,.16l0,.35a2.63,2.63,0,0,0-1-.18,1.65,1.65,0,0,0-1.6,1.82,1.58,1.58,0,0,0,1.58,1.69,3,3,0,0,0,1.07-.19Zm3.55.11H17V45h2v.33h-1.6v1.48h1.52v.33H17.41v1.61h1.71Zm5.22,0A1.85,1.85,0,0,1,22.49,47a1.86,1.86,0,1,1,3.7,0A1.85,1.85,0,0,1,24.34,49.09Zm6.15,0a2.52,2.52,0,0,1-1.1-.26l.05-.36a2.29,2.29,0,0,0,1,.28c.6,0,1.1-.28,1.1-.78s-.2-.9-1.08-.9H30v-.33h.48c.86,0,1-.51,1-.83s-.4-.67-1-.67a2.52,2.52,0,0,0-1,.23l0-.37a2.85,2.85,0,0,1,1-.19c.89,0,1.37.43,1.37,1a.91.91,0,0,1-.67,1h0A1,1,0,0,1,32,48C32,48.77,31.2,49.09,30.49,49.09Zm6,0L36,47.92H33.89L33.44,49H33L34.65,45h.5L36.87,49Zm3.88-3.75H38.63V49h-.39V45h2.09Zm2.93,3.8A1.85,1.85,0,0,1,41.41,47a1.86,1.86,0,1,1,3.7,0A1.85,1.85,0,0,1,43.26,49.09Zm5.79-3.8H47.83V49h-.39V45.29H46.22V45h2.83Zm3,3.8A1.85,1.85,0,0,1,50.16,47a1.86,1.86,0,1,1,3.7,0A1.85,1.85,0,0,1,52,49.09Zm4.51,0H55.47V45h1.09c.85,0,1.2.47,1.2,1a.91.91,0,0,1-.71.92v0a1,1,0,0,1,.82,1C57.87,49,56.72,49,56.52,49ZM62,49l-2-2.06h0V49h-.39V45h.39v1.87h0L61.81,45h.49l-2,1.93L62.52,49Zm4,0H63.92V45h2v.33h-1.6v1.48h1.52v.33H64.31v1.61H66Zm6.65,0h-.39V46l0-.5h0l-.2.39-2,3.18h-.44V45H70V48l0,.5h0l.23-.42,2-3.15h.44Zm6.83,0h-.39V45.29H77V49H76.6V45h2.9Zm4,0H81.37V45h2v.33h-1.6v1.48h1.52v.33H81.75v1.61h1.71Zm2.64-1.73h-.68V49H85V45H86.1a1.18,1.18,0,1,1,0,2.36ZM90.94,49H88.84V45h2v.33h-1.6v1.48h1.52v.33H89.23v1.61h1.71Zm2.64-1.73H92.9V49h-.39V45h1.06a1.18,1.18,0,1,1,0,2.36ZM99.25,49l-.47-1.13H96.69L96.24,49h-.42L97.44,45h.5L99.67,49Zm2.84,0H101V45h2.18v.33h-1.8v1.45h.7c1.2,0,1.33.81,1.33,1.14C103.45,48.64,102.91,49,102.09,49Zm4.58,0A1.85,1.85,0,0,1,104.83,47a1.86,1.86,0,1,1,3.7,0A1.85,1.85,0,0,1,106.68,49.09Zm5.79-3.8h-1.22V49h-.39V45.29h-1.22V45h2.83ZM116.28,49l-2-2.06h0V49h-.39V45h.39v1.87h0L116.11,45h.49l-2,1.93L116.82,49Zm4,0h-2.09V45h2v.33h-1.6v1.48h1.52v.33h-1.52v1.61h1.71Zm6.89.89h-.38V49h-3v.89h-.39V48.71h.34a4.06,4.06,0,0,0,.57-2.63V45h2.33v3.75h.47Zm2.58-2.61h-.68V49h-.38V45h1.06a1.18,1.18,0,1,1,0,2.36ZM134.63,49h-2.09V45h2v.33h-1.6v1.48h1.52v.33h-1.52v1.61h1.71Zm2.63,0H136.2V45h1.09c.85,0,1.2.47,1.2,1a.92.92,0,0,1-.71.92v0a1,1,0,0,1,.82,1C138.61,49,137.45,49,137.26,49Zm5.11,0h-2.09V45h2v.33h-1.6v1.48h1.52v.33h-1.52v1.61h1.71Zm4.38-.11a4.07,4.07,0,0,1-1.13.16,1.89,1.89,0,0,1-1.94-2,2,2,0,0,1,2-2.15,2.89,2.89,0,0,1,1,.16l0,.35a2.64,2.64,0,0,0-1-.18,1.65,1.65,0,0,0-1.6,1.82,1.58,1.58,0,0,0,1.58,1.69,3,3,0,0,0,1.07-.19Zm4.48.11h-.39V46l0-.5h0l-.2.39-2,3.18h-.44V45h.39V48l0,.5h0l.23-.42,2-3.15h.44ZM156,49h-.39V47.09h-2.12V49h-.38V45h.38v1.8h2.12V45H156Zm3.11,0h-1.24V45h.38v1.67h.65c.25,0,1.46,0,1.46,1.2A1.21,1.21,0,0,1,159.09,49Zm2.3,0H161V45h.38Z"/><path class="cls-1" d="M138.08,46c0-.5-.37-.7-.82-.7h-.67v1.48h.65A.75.75,0,0,0,138.08,46Z"/><path class="cls-1" d="M129.71,45.29h-.6V47h.6a.79.79,0,0,0,.89-.85A.82.82,0,0,0,129.71,45.29Z"/></svg>