<svg id="Слой_1" data-name="Слой 1" xmlns="http://www.w3.org/2000/svg" viewBox="0 0 161 48.19"><defs><style>.cls-1{fill:#178341;}.cls-2{fill:#38ad4a;}</style></defs><title>Новый Лого ЛК</title><path class="cls-1" d="M10.72,40.66v0a.85.85,0,0,0,.66-.86c0-.52-.32-1-1.11-1h-1v3.81h1c.18,0,1.26,0,1.26-1.07A.91.91,0,0,0,10.72,40.66ZM9.61,39.13h.62c.42,0,.77.19.77.65a.7.7,0,0,1-.78.72H9.61Zm.58,3.19H9.61v-1.5h.61c.51,0,.88.27.88.74C11.1,42.26,10.5,42.32,10.18,42.32Z"/><rect class="cls-1" x="4.68" y="19.57" width="151.47" height="0.57"/><path class="cls-1" d="M81.41,38.82h-1v3.81h.36V41h.63a1.1,1.1,0,1,0,0-2.2Zm-.07,1.89h-.56V39.13h.56a.76.76,0,0,1,.83.79A.74.74,0,0,1,81.34,40.71Z"/><path class="cls-1" d="M92.45,38.82H92l-1.51,3.81h.39l.42-1.05h1.95l.44,1.05h.39Zm-1.06,2.45.69-1.74.12-.36h0l.14.36.74,1.74Z"/><path class="cls-1" d="M88.38,38.82h-1v3.81h.36V41h.63a1.1,1.1,0,1,0,0-2.2Zm-.07,1.89h-.56V39.13h.56a.76.76,0,0,1,.82.79A.74.74,0,0,1,88.31,40.71Z"/><path class="cls-1" d="M100.59,38.78a1.75,1.75,0,0,0-1.72,2,1.74,1.74,0,1,0,3.45,0A1.75,1.75,0,0,0,100.59,38.78Zm0,3.58c-.66,0-1.34-.49-1.34-1.63s.67-1.64,1.34-1.64,1.34.5,1.34,1.64S101.25,42.36,100.59,42.36Z"/><path class="cls-1" d="M119.29,42.32v-3.5h-2.18v1a3.79,3.79,0,0,1-.53,2.45h-.32v1.14h.36v-.83h2.75v.83h.36V42.32Zm-.36,0H117a4.17,4.17,0,0,0,.48-2.41v-.78h1.46Z"/><path class="cls-1" d="M96.35,40.49h-.65V39.13h1.67v-.31h-2v3.81h1c.76,0,1.27-.38,1.27-1.08C97.59,41.24,97.46,40.49,96.35,40.49Zm-.1,1.83h-.55V40.8h.56c.76,0,.95.39.95.76S97,42.32,96.25,42.32Z"/><path class="cls-1" d="M54.33,40.66v0a.85.85,0,0,0,.66-.86c0-.52-.32-1-1.11-1h-1v3.81h1c.18,0,1.26,0,1.26-1.07A.91.91,0,0,0,54.33,40.66Zm-1.11-1.52h.62c.42,0,.77.19.77.65a.7.7,0,0,1-.78.72h-.61Zm.58,3.19h-.58v-1.5h.61c.51,0,.88.27.88.74C54.71,42.26,54.11,42.32,53.79,42.32Z"/><path class="cls-1" d="M33.91,38.82h-.47l-1.51,3.81h.39l.42-1.05h1.95l.44,1.05h.39Zm-1.05,2.45.69-1.74.12-.36h0l.14.36.74,1.74Z"/><path class="cls-1" d="M41.48,38.78a1.75,1.75,0,0,0-1.72,2,1.74,1.74,0,1,0,3.45,0A1.75,1.75,0,0,0,41.48,38.78Zm0,3.58c-.66,0-1.34-.49-1.34-1.63s.67-1.64,1.34-1.64,1.34.5,1.34,1.64S42.14,42.36,41.48,42.36Z"/><path class="cls-1" d="M49.63,38.78a1.75,1.75,0,0,0-1.72,2,1.74,1.74,0,1,0,3.45,0A1.75,1.75,0,0,0,49.63,38.78Zm0,3.58c-.66,0-1.34-.49-1.34-1.63s.67-1.64,1.34-1.64,1.34.5,1.34,1.64S50.3,42.36,49.63,42.36Z"/><path class="cls-1" d="M23.84,38.78a1.75,1.75,0,0,0-1.72,2,1.74,1.74,0,1,0,3.45,0A1.75,1.75,0,0,0,23.84,38.78Zm0,3.58c-.66,0-1.34-.49-1.34-1.63s.67-1.64,1.34-1.64,1.34.5,1.34,1.64S24.5,42.36,23.84,42.36Z"/><path class="cls-1" d="M149.26,40.38h-.61V38.82h-.36v3.81h1.15a1.13,1.13,0,0,0,1.17-1.13C150.62,40.38,149.49,40.38,149.26,40.38Zm.08,1.94h-.69V40.7h.6c.31,0,1,.05,1,.82A.8.8,0,0,1,149.34,42.32Z"/><rect class="cls-1" x="18.29" y="38.04" width="0.37" height="0.44"/><rect class="cls-1" x="17.05" y="38.04" width="0.38" height="0.44"/><path class="cls-1" d="M15.66,42.53a3.8,3.8,0,0,1-1.05.15,1.76,1.76,0,0,1-1.81-1.89,1.82,1.82,0,0,1,1.85-2,2.68,2.68,0,0,1,1,.15l0,.33a2.45,2.45,0,0,0-.91-.16,1.53,1.53,0,0,0-1.5,1.7,1.47,1.47,0,0,0,1.47,1.57,2.79,2.79,0,0,0,1-.18Z"/><polygon class="cls-1" points="18.97 42.63 17.02 42.63 17.02 38.82 18.86 38.82 18.86 39.13 17.38 39.13 17.38 40.51 18.8 40.51 18.8 40.82 17.38 40.82 17.38 42.32 18.97 42.32 18.97 42.63"/><path class="cls-1" d="M29.57,42.68a2.35,2.35,0,0,1-1-.24l0-.34a2.14,2.14,0,0,0,1,.26c.55,0,1-.26,1-.73s-.18-.84-1-.84h-.46v-.31h.45c.8,0,.9-.47.9-.78s-.37-.62-.89-.62a2.35,2.35,0,0,0-.91.21l0-.34a2.66,2.66,0,0,1,.94-.18c.83,0,1.28.4,1.28.95a.85.85,0,0,1-.62.9h0a.92.92,0,0,1,.75,1C31,42.38,30.23,42.68,29.57,42.68Z"/><polygon class="cls-1" points="38.75 39.13 37.16 39.13 37.16 42.63 36.8 42.63 36.8 38.82 38.75 38.82 38.75 39.13"/><polygon class="cls-1" points="46.88 39.13 45.74 39.13 45.74 42.63 45.38 42.63 45.38 39.13 44.24 39.13 44.24 38.82 46.88 38.82 46.88 39.13"/><polygon class="cls-1" points="58.92 42.63 57.02 40.71 57.01 40.71 57.01 42.63 56.65 42.63 56.65 38.82 57.01 38.82 57.01 40.56 57.02 40.56 58.77 38.82 59.22 38.82 57.37 40.62 59.43 42.63 58.92 42.63"/><polygon class="cls-1" points="62.69 42.63 60.74 42.63 60.74 38.82 62.59 38.82 62.59 39.13 61.1 39.13 61.1 40.51 62.52 40.51 62.52 40.82 61.1 40.82 61.1 42.32 62.69 42.32 62.69 42.63"/><polygon class="cls-1" points="68.89 42.63 68.53 42.63 68.53 39.77 68.55 39.31 68.54 39.31 68.35 39.67 66.49 42.63 66.08 42.63 66.08 38.82 66.44 38.82 66.44 41.68 66.42 42.15 66.43 42.15 66.64 41.76 68.48 38.82 68.89 38.82 68.89 42.63"/><polygon class="cls-1" points="75.25 42.63 74.9 42.63 74.9 39.13 72.91 39.13 72.91 42.63 72.55 42.63 72.55 38.82 75.25 38.82 75.25 42.63"/><polygon class="cls-1" points="78.95 42.63 77 42.63 77 38.82 78.85 38.82 78.85 39.13 77.36 39.13 77.36 40.51 78.78 40.51 78.78 40.82 77.36 40.82 77.36 42.32 78.95 42.32 78.95 42.63"/><polygon class="cls-1" points="85.92 42.63 83.97 42.63 83.97 38.82 85.81 38.82 85.81 39.13 84.32 39.13 84.32 40.51 85.74 40.51 85.74 40.82 84.32 40.82 84.32 42.32 85.92 42.32 85.92 42.63"/><polygon class="cls-1" points="105.98 39.13 104.85 39.13 104.85 42.63 104.49 42.63 104.49 39.13 103.35 39.13 103.35 38.82 105.98 38.82 105.98 39.13"/><polygon class="cls-1" points="109.54 42.63 107.64 40.71 107.62 40.71 107.62 42.63 107.26 42.63 107.26 38.82 107.62 38.82 107.62 40.56 107.64 40.56 109.38 38.82 109.84 38.82 107.99 40.62 110.05 42.63 109.54 42.63"/><polygon class="cls-1" points="113.31 42.63 111.35 42.63 111.35 38.82 113.2 38.82 113.2 39.13 111.71 39.13 111.71 40.51 113.13 40.51 113.13 40.82 111.71 40.82 111.71 42.32 113.31 42.32 113.31 42.63"/><polygon class="cls-1" points="126.64 42.63 124.69 42.63 124.69 38.82 126.54 38.82 126.54 39.13 125.05 39.13 125.05 40.51 126.47 40.51 126.47 40.82 125.05 40.82 125.05 42.32 126.64 42.32 126.64 42.63"/><polygon class="cls-1" points="133.86 42.63 131.91 42.63 131.91 38.82 133.75 38.82 133.75 39.13 132.27 39.13 132.27 40.51 133.68 40.51 133.68 40.82 132.27 40.82 132.27 42.32 133.86 42.32 133.86 42.63"/><path class="cls-1" d="M137.94,42.53a3.79,3.79,0,0,1-1.05.15,1.76,1.76,0,0,1-1.81-1.89,1.82,1.82,0,0,1,1.85-2,2.69,2.69,0,0,1,1,.15l0,.33a2.46,2.46,0,0,0-.91-.16,1.53,1.53,0,0,0-1.49,1.7,1.47,1.47,0,0,0,1.47,1.57,2.8,2.8,0,0,0,1-.18Z"/><polygon class="cls-1" points="142.12 42.63 141.76 42.63 141.76 39.77 141.78 39.31 141.76 39.31 141.57 39.67 139.71 42.63 139.31 42.63 139.31 38.82 139.66 38.82 139.66 41.68 139.64 42.15 139.66 42.15 139.87 41.76 141.71 38.82 142.12 38.82 142.12 42.63"/><polygon class="cls-1" points="146.56 42.63 146.2 42.63 146.2 40.81 144.22 40.81 144.22 42.63 143.86 42.63 143.86 38.82 144.22 38.82 144.22 40.5 146.2 40.5 146.2 38.82 146.56 38.82 146.56 42.63"/><rect class="cls-1" x="151.23" y="38.82" width="0.36" height="3.81"/><path class="cls-1" d="M129.59,40.66v0a.85.85,0,0,0,.66-.86c0-.52-.32-1-1.12-1h-1v3.81h1c.18,0,1.26,0,1.26-1.07A.91.91,0,0,0,129.59,40.66Zm-1.11-1.52h.62c.42,0,.77.19.77.65a.7.7,0,0,1-.78.72h-.61Zm.58,3.19h-.58v-1.5h.61c.51,0,.88.27.88.74C130,42.26,129.37,42.32,129.05,42.32Z"/><path class="cls-1" d="M122.14,38.82h-1v3.81h.36V41h.63a1.1,1.1,0,1,0,0-2.2Zm-.07,1.89h-.56V39.13h.56a.76.76,0,0,1,.83.79A.74.74,0,0,1,122.06,40.71Z"/><path class="cls-1" d="M74,11.83l3.2,5.55-1.6,2.77h-8L74.81,7.67l.8,1.39ZM84.42,4.89l-.8,1.39,1.6,2.77-6.41,11.1H93.23Z"/><path class="cls-2" d="M80.42,17.37l-1.6,2.77h-3.2l3.2-5.55Zm4.8-2.77-1.6,2.77,1.6,2.77h3.2ZM80.42.73,74,11.83l1.6,2.77L78.82,9,82,14.6h0l3.2-5.55Z"/><path class="cls-2" d="M29.33,31.07a7.71,7.71,0,0,1-1.23.26,9.79,9.79,0,0,1-1.24.08,4.46,4.46,0,0,1-3.2-1.07,3.66,3.66,0,0,1-.2-4.87,4.3,4.3,0,0,1,3.36-1.21,10.24,10.24,0,0,1,1.44.09,10,10,0,0,1,1,.22v2a3.85,3.85,0,0,0-1.41-.31,1.75,1.75,0,0,0-1.23.44,1.72,1.72,0,0,0,0,2.36,1.7,1.7,0,0,0,1.24.44,3.34,3.34,0,0,0,.65-.07,4,4,0,0,0,.83-.29Z"/><path class="cls-2" d="M38.1,31.25H34.8V28.73H33.63v2.52H30.34V24.41h3.29v2.36H34.8V24.41H38.1Z"/><path class="cls-2" d="M47.5,27.83a3.24,3.24,0,0,1-1.14,2.62,4.67,4.67,0,0,1-3.1,1,4.69,4.69,0,0,1-3.1-1A3.23,3.23,0,0,1,39,27.83a3.24,3.24,0,0,1,1.14-2.62,4.67,4.67,0,0,1,3.1-1,4.69,4.69,0,0,1,3.1,1A3.23,3.23,0,0,1,47.5,27.83Zm-3.53,0a4.33,4.33,0,0,0-.09-1.07q-.16-.55-.63-.55a.63.63,0,0,0-.63.54,4.39,4.39,0,0,0-.09,1.08,4.31,4.31,0,0,0,.09,1.07.63.63,0,0,0,1.25,0A4.41,4.41,0,0,0,44,27.83Z"/><path class="cls-2" d="M66.34,31.25H62.72l-1.88-3h-.05v3H57.55V24.41h3.24v3h.05l1.87-3h3.63L64,27.76Z"/><path class="cls-2" d="M75.22,27.83a3.24,3.24,0,0,1-1.14,2.62,5.51,5.51,0,0,1-6.2,0,3.23,3.23,0,0,1-1.14-2.63,3.24,3.24,0,0,1,1.14-2.62,5.51,5.51,0,0,1,6.2,0A3.24,3.24,0,0,1,75.22,27.83Zm-3.53,0a4.33,4.33,0,0,0-.09-1.07.63.63,0,0,0-1.25,0,4.39,4.39,0,0,0-.09,1.08,4.31,4.31,0,0,0,.09,1.07.63.63,0,0,0,1.25,0A4.4,4.4,0,0,0,71.69,27.83Z"/><path class="cls-2" d="M20.79,29.51l-.4.1a5.81,5.81,0,0,1-1.14.1,2.07,2.07,0,0,1-1.36-.37.91.91,0,0,1-.31-.72h4.57V28A3.55,3.55,0,0,0,20.85,25a4.21,4.21,0,0,0-2.56-.73,4.24,4.24,0,0,0-2.86.94,3.15,3.15,0,0,0-1.1,2.52,3.64,3.64,0,0,0,.78,2.39,4.23,4.23,0,0,0,3.46,1.31,13,13,0,0,0,1.53-.1A11.09,11.09,0,0,0,21.66,31h0ZM17.59,27.1a1.32,1.32,0,0,1,.34-1,.75.75,0,0,1,.51-.18.72.72,0,0,1,.56.25,1.45,1.45,0,0,1,.29,1v.12h-1.7Z"/><path class="cls-2" d="M6.15,24.41v4.31H4.68l1.46,2.53A2.9,2.9,0,0,0,9,28.35v-2h1.12v4.89h3.29V24.41Z"/><path class="cls-2" d="M94.81,31.25H91.52V26.37H90.35v4.89H87.05V24.41h7.76Z"/><path class="cls-2" d="M122.48,31.25h-3.62l-1.88-3h-.05v3h-3.24V24.41h3.24v3H117l1.87-3h3.63l-2.35,3.36Z"/><path class="cls-2" d="M129.56,31.07a7.71,7.71,0,0,1-1.23.26,9.79,9.79,0,0,1-1.24.08,4.46,4.46,0,0,1-3.2-1.07,3.66,3.66,0,0,1-.2-4.87,4.3,4.3,0,0,1,3.36-1.21,10.24,10.24,0,0,1,1.44.09,10,10,0,0,1,1,.22v2a3.85,3.85,0,0,0-1.41-.31,1.75,1.75,0,0,0-1.23.44,1.72,1.72,0,0,0,0,2.36,1.7,1.7,0,0,0,1.24.44,3.34,3.34,0,0,0,.65-.07,4,4,0,0,0,.83-.29Z"/><path class="cls-2" d="M133.74,31.25h-2.85V28.73h2.85Z"/><path class="cls-2" d="M143.75,27.95a3.54,3.54,0,0,1-1,2.68,2.81,2.81,0,0,1-2,.78,2.39,2.39,0,0,1-2.09-1v3.74h-3.29V24.41h3.06v1.16h.05a2.24,2.24,0,0,1,2.17-1.32,2.94,2.94,0,0,1,2.05.73A3.83,3.83,0,0,1,143.75,27.95Zm-3.53,0a2.69,2.69,0,0,0-.13-.91.72.72,0,0,0-1.38,0,3.31,3.31,0,0,0,0,1.84.72.72,0,0,0,1.38,0A2.67,2.67,0,0,0,140.22,27.92Z"/><path class="cls-2" d="M156.15,27.83a3.93,3.93,0,0,1-.91,2.86,2.34,2.34,0,0,1-1.74.72,2.47,2.47,0,0,1-.85-.16,2.34,2.34,0,0,1-.8-.5v3.36h-3.29V30.75a2.32,2.32,0,0,1-.8.5,2.49,2.49,0,0,1-.85.15,2.32,2.32,0,0,1-1.72-.71,3.94,3.94,0,0,1-.93-2.87,3.93,3.93,0,0,1,.91-2.86,2.34,2.34,0,0,1,1.74-.72,2.47,2.47,0,0,1,.85.16,2.35,2.35,0,0,1,.8.5V21.69h3.29V24.9a2.33,2.33,0,0,1,.8-.5,2.5,2.5,0,0,1,.85-.15,2.32,2.32,0,0,1,1.72.71A4,4,0,0,1,156.15,27.83Zm-7.37,1.28V26.55a.81.81,0,0,0-.32-.25.89.89,0,0,0-.29-.05.55.55,0,0,0-.48.36,2.92,2.92,0,0,0-.18,1.22,3.85,3.85,0,0,0,.1,1q.16.55.56.55a.89.89,0,0,0,.29-.05A.8.8,0,0,0,148.79,29.11Zm4.13-1.28a3.87,3.87,0,0,0-.1-1q-.16-.55-.56-.55a.89.89,0,0,0-.29.05.81.81,0,0,0-.32.25v2.56a.8.8,0,0,0,.32.25.88.88,0,0,0,.29.05.55.55,0,0,0,.48-.36A2.91,2.91,0,0,0,152.92,27.83Z"/><path class="cls-2" d="M111.05,29.61a5.81,5.81,0,0,1-1.14.1,2.07,2.07,0,0,1-1.36-.37.91.91,0,0,1-.31-.72h4.57V28A3.55,3.55,0,0,0,111.51,25a4.83,4.83,0,0,0-5.42.21,3.15,3.15,0,0,0-1.1,2.52,3.64,3.64,0,0,0,.78,2.39,4.22,4.22,0,0,0,3.46,1.31,13,13,0,0,0,1.53-.1,11.09,11.09,0,0,0,1.55-.29l-.87-1.51Zm-2.81-2.51a1.32,1.32,0,0,1,.34-1,.75.75,0,0,1,.51-.18.72.72,0,0,1,.56.25,1.45,1.45,0,0,1,.29,1v.12h-1.7Z"/><path class="cls-2" d="M96.8,24.41v4.31H95.34l1.46,2.53a2.9,2.9,0,0,0,2.9-2.9v-2h1.12v4.89h3.29V24.41Z"/><polygon class="cls-2" points="56.24 31.25 53.62 31.25 53.62 27.42 53.58 27.42 51.85 31.25 48.79 31.25 48.79 24.41 51.41 24.41 51.41 28.32 51.45 28.32 53.18 24.41 56.24 24.41 56.24 31.25"/><path class="cls-2" d="M50.35,22.5a1.51,1.51,0,0,0,.61.76,3.3,3.3,0,0,0,3.1,0,1.5,1.5,0,0,0,.61-.76Z"/><path class="cls-2" d="M85.75,31.25H83.14V27h-.08l-1.23,4.28H80.05L78.83,27h-.08v4.28H76.13V24.41h3.92l.85,3H81l.85-3h3.92Z"/><rect class="cls-1" x="4.85" y="35.28" width="151.47" height="0.57"/></svg>