<svg id="Слой_1" data-name="Слой 1" xmlns="http://www.w3.org/2000/svg" viewBox="0 0 167.08 42.19"><defs><style>.cls-1{fill:#2cb34a;}.cls-2{fill:#178341;}</style></defs><title>Лого ЛКС</title><polygon class="cls-1" points="80.06 16.04 90.02 16.04 87.53 12.31 90.01 12.31 85.04 4.85 80.06 12.31 82.55 12.31 80.06 16.04"/><path class="cls-2" d="M8.38,21.53v.19c0,.76-.05,2.06-.12,2.73a4.34,4.34,0,0,1-1,2.7A3.43,3.43,0,0,1,4.65,28c-.33,0-.36-.15-.41-.34l-.43-1.55A.3.3,0,0,1,4,25.75l.15,0A1.85,1.85,0,0,0,5,25.36a3.44,3.44,0,0,0,.64-2.47l0-1.22H5.2c-.15,0-.24,0-.24-.22V19.5c0-.21.12-.24.24-.24h7.43c.26,0,.22.1.22.29v5.77h.52c.15,0,.24,0,.24.22v2c0,.22-.09.22-.24.22H10c-.17,0-.26,0-.26-.22v-6Z"/><path class="cls-2" d="M22.32,26.73c.09.15.07.21-.12.33a6,6,0,0,1-3.36,1c-2.85,0-4.31-1.68-4.31-4.46S16.1,19,18.75,19s3.85,1.77,3.85,4.93c0,.26-.1.24-.33.24H17.47c.1,1.2.58,1.67,1.44,1.67a4,4,0,0,0,2.21-.64c.22-.12.31-.07.41.12ZM19.71,22.3c-.07-1.12-.39-1.44-1.06-1.44s-1,.36-1.17,1.44Z"/><path class="cls-2" d="M30.71,26.73c.09.22.1.28-.05.45a4.81,4.81,0,0,1-3,.86c-2.73,0-4.17-1.73-4.17-4.4S25.15,19,28,19a3.69,3.69,0,0,1,2.58.76.44.44,0,0,1,.14.43v2.13c0,.19,0,.24-.22.24H28.41c-.17,0-.22-.05-.22-.24v-1l-.19,0c-.94,0-1.39.6-1.39,2.33s.53,2.18,1.41,2.18a4.78,4.78,0,0,0,1.65-.48c.29-.12.38-.19.5.1Z"/><path class="cls-2" d="M37.1,19.5c0-.22.17-.24.29-.24h3.31c.12,0,.24,0,.24.24v1.94c0,.19-.09.22-.24.22h-.52v3.67h.52c.19,0,.24.05.24.24v1.94c0,.22-.09.22-.24.22H37.29c-.17,0-.19-.07-.19-.22V24.47H35.38v3.14c0,.15-.05.14-.17.14H31.78c-.16,0-.24,0-.24-.22V25.58c0-.19.05-.24.24-.24h.51V21.67h-.51c-.16,0-.24,0-.24-.22V19.5c0-.21.12-.24.24-.24h3.33c.15,0,.27,0,.27.24v2.76H37.1Z"/><path class="cls-2" d="M46.06,28c-2.75,0-4.21-1.8-4.21-4.55S43.37,19,46.08,19s4.17,1.84,4.17,4.55S48.72,28,46.06,28Zm0-7c-.72,0-1.13.51-1.13,2.45s.41,2.42,1.13,2.42,1.15-.53,1.15-2.44S46.77,21.07,46,21.07Z"/><path class="cls-2" d="M52.16,27.75c-.19,0-.24,0-.24-.24V21.67H51.4c-.15,0-.24,0-.24-.22V19.5c0-.21.12-.24.24-.24h3.12c.1,0,.17,0,.17.12v3.05c0,.5,0,1.15-.07,1.65h.05a14.8,14.8,0,0,1,1-2L57,19.62a.57.57,0,0,1,.53-.36h2.39c.14,0,.22,0,.22.21v5.85h.52c.15,0,.24,0,.24.22v2c0,.22-.09.22-.24.22H57.53c-.15,0-.21,0-.21-.22v-3c0-.43.05-1.24.09-1.6h-.07a17.16,17.16,0,0,1-1.08,2.32l-1.18,2.27a.49.49,0,0,1-.46.26Zm6.56-11.9c.19,0,.22.17.22.33a1.7,1.7,0,0,1-.17.7,2.31,2.31,0,0,1-.81,1,3.61,3.61,0,0,1-2.15.62,3.47,3.47,0,0,1-2.11-.62,2.36,2.36,0,0,1-.94-1.51c-.09-.41,0-.53.19-.57l1.41-.24a.33.33,0,0,1,.39.24l0,.1a1.62,1.62,0,0,0,.33.7,1.14,1.14,0,0,0,1.44,0,1.64,1.64,0,0,0,.33-.7l0-.1a.33.33,0,0,1,.38-.26Z"/><path class="cls-2" d="M65.53,27.51c0,.24,0,.24-.17.24H62.7c-.17,0-.26,0-.26-.22V21.67h-.52c-.15,0-.24,0-.24-.22V19.5c0-.21.12-.24.24-.24h3.26c.19,0,.34,0,.34.24v2.68h.62a.78.78,0,0,0,.6-.19,1.41,1.41,0,0,0,.33-.76l.14-.58a2.4,2.4,0,0,1,.55-1.08,2.93,2.93,0,0,1,2.11-.74c.19,0,.38,0,.43.21l.39,1.61c0,.14,0,.31-.17.33l-.31.05a.86.86,0,0,0-.46.22,1.11,1.11,0,0,0-.21.43l-.21.62a1.48,1.48,0,0,1-.36.63,1.36,1.36,0,0,1-.58.33v.05a1.52,1.52,0,0,1,.63.39,1.94,1.94,0,0,1,.43.84l.12.46a1.17,1.17,0,0,0,.26.58,1,1,0,0,0,.51.21l.21,0c.28.05.28.24.24.43l-.34,1.51c0,.19-.09.26-.52.26a3.25,3.25,0,0,1-2.23-.65,2.55,2.55,0,0,1-.62-1.3l-.16-.79a1.24,1.24,0,0,0-.27-.65.85.85,0,0,0-.62-.19h-.51Z"/><path class="cls-2" d="M75.68,28c-2.75,0-4.21-1.8-4.21-4.55S73,19,75.7,19s4.17,1.84,4.17,4.55S78.34,28,75.68,28Zm0-7c-.72,0-1.13.51-1.13,2.45s.41,2.42,1.13,2.42,1.15-.53,1.15-2.44S76.38,21.07,75.66,21.07Z"/><path class="cls-2" d="M90.38,19.26c.22,0,.31,0,.33.26l.45,5.8h.45c.15,0,.24,0,.24.22v2c0,.22-.09.22-.24.22H88.85c-.19,0-.33,0-.33-.26l-.09-4.7h-.1c-.12.69-.36,1.55-.48,2l-.48,1.67c-.05.19-.1.22-.34.22H85.57c-.24,0-.29,0-.34-.22l-.52-1.79a14.9,14.9,0,0,1-.46-1.85h-.09l-.07,4.7c0,.26-.14.26-.33.26H81c-.15,0-.24,0-.24-.22v-2c0-.19.09-.22.24-.22h.45l.46-5.8c0-.24.1-.26.33-.26h2.56c.15,0,.29,0,.34.19l.69,2.32a8.87,8.87,0,0,1,.41,1.77h.1a8.6,8.6,0,0,1,.39-1.63l.72-2.46c.05-.17.19-.19.34-.19Z"/><path class="cls-2" d="M101.85,21.44c0,.19-.09.22-.24.22h-.51v3.67h.51c.19,0,.24.05.24.24v1.94c0,.22-.09.22-.24.22H98.33c-.17,0-.26,0-.26-.22V21.7H96.44v5.8c0,.24,0,.24-.19.24H92.9c-.15,0-.24,0-.24-.22V25.58c0-.19.05-.24.24-.24h.52V21.67H92.9c-.15,0-.24,0-.24-.22V19.5c0-.21.12-.24.24-.24h8.7c.12,0,.24,0,.24.24Z"/><path class="cls-2" d="M106.91,21.53v.19c0,.76-.05,2.06-.12,2.73a4.33,4.33,0,0,1-1,2.7,3.43,3.43,0,0,1-2.56.89c-.33,0-.36-.15-.41-.34l-.43-1.55a.3.3,0,0,1,.19-.39l.16,0a1.85,1.85,0,0,0,.89-.36,3.45,3.45,0,0,0,.64-2.47l0-1.22h-.5c-.15,0-.24,0-.24-.22V19.5c0-.21.12-.24.24-.24h7.43c.26,0,.22.1.22.29v5.77h.52c.15,0,.24,0,.24.22v2c0,.22-.09.22-.24.22h-3.35c-.17,0-.26,0-.26-.22v-6Z"/><path class="cls-2" d="M120.85,26.73c.09.15.07.21-.12.33a6,6,0,0,1-3.36,1c-2.85,0-4.31-1.68-4.31-4.46s1.58-4.6,4.22-4.6,3.85,1.77,3.85,4.93c0,.26-.1.24-.33.24H116c.1,1.2.58,1.67,1.44,1.67a4,4,0,0,0,2.21-.64c.22-.12.31-.07.41.12Zm-2.61-4.43c-.07-1.12-.4-1.44-1.06-1.44s-1,.36-1.17,1.44Z"/><path class="cls-2" d="M125.83,27.51c0,.24,0,.24-.17.24H123c-.17,0-.26,0-.26-.22V21.67h-.52c-.15,0-.24,0-.24-.22V19.5c0-.21.12-.24.24-.24h3.26c.19,0,.34,0,.34.24v2.68h.62a.78.78,0,0,0,.6-.19,1.41,1.41,0,0,0,.33-.76l.14-.58a2.42,2.42,0,0,1,.55-1.08,2.93,2.93,0,0,1,2.11-.74c.19,0,.38,0,.43.21l.4,1.61a.24.24,0,0,1-.17.33l-.31.05a.85.85,0,0,0-.46.22,1.1,1.1,0,0,0-.21.43l-.21.62a1.47,1.47,0,0,1-.36.63,1.35,1.35,0,0,1-.58.33v.05a1.51,1.51,0,0,1,.64.39,1.94,1.94,0,0,1,.43.84l.12.46a1.18,1.18,0,0,0,.26.58,1,1,0,0,0,.52.21l.21,0c.28.05.28.24.24.43l-.34,1.51c0,.19-.09.26-.52.26a3.26,3.26,0,0,1-2.23-.65,2.56,2.56,0,0,1-.62-1.3l-.15-.79a1.25,1.25,0,0,0-.27-.65.86.86,0,0,0-.62-.19h-.52Z"/><path class="cls-2" d="M139,26.73c.09.22.1.28-.05.45a4.81,4.81,0,0,1-3,.86c-2.73,0-4.17-1.73-4.17-4.4S133.39,19,136.22,19a3.69,3.69,0,0,1,2.58.76.44.44,0,0,1,.14.43v2.13c0,.19,0,.24-.22.24h-2.06c-.17,0-.22-.05-.22-.24v-1l-.19,0c-.94,0-1.39.6-1.39,2.33s.53,2.18,1.41,2.18a4.76,4.76,0,0,0,1.65-.48c.29-.12.38-.19.5.1Z"/><path class="cls-2" d="M142.06,28.19A2.15,2.15,0,1,1,144.22,26,2.14,2.14,0,0,1,142.06,28.19Z"/><path class="cls-2" d="M148.07,19.23c.19,0,.24.1.38.48a2.79,2.79,0,0,1,2-.74c2.39,0,3.5,1.82,3.5,4.52,0,3-1.1,4.58-3.67,4.58a3.12,3.12,0,0,1-1.32-.34v1.08h.51c.19,0,.24.05.24.22v2c0,.19-.05.24-.24.24h-4.17c-.19,0-.24-.05-.24-.24V29c0-.17.05-.22.24-.22h.53v-6.7a2,2,0,0,0-.05-.45h-.6c-.19,0-.24,0-.24-.22v-2c0-.17,0-.24.24-.24Zm.86,6.71a2.21,2.21,0,0,0,.88.17c.74,0,1.13-.46,1.13-2.58,0-1.82-.45-2.4-1-2.4a1.62,1.62,0,0,0-1,.41Z"/><path class="cls-2" d="M162,15.19c.17,0,.19.09.19.22v4.07a2.81,2.81,0,0,1,3.19.45,5.06,5.06,0,0,1,.94,3.4,6.24,6.24,0,0,1-.72,3.47,2.41,2.41,0,0,1-2.27,1.13,3,3,0,0,1-1.15-.21v1.12h.53c.15,0,.24,0,.24.22v2c0,.19-.05.24-.24.24h-4.17c-.19,0-.24-.05-.24-.24v-2c0-.19.09-.22.24-.22h.55V27.73a2.88,2.88,0,0,1-1.1.21,2.5,2.5,0,0,1-2.33-1.22,6.33,6.33,0,0,1-.7-3.38A4.9,4.9,0,0,1,156,20a2.54,2.54,0,0,1,1.89-.77,2.27,2.27,0,0,1,1.17.31V17.6h-.52c-.15,0-.24,0-.24-.22V15.43c0-.21.12-.24.24-.24Zm-2.7,6.25a1.32,1.32,0,0,0-.75-.24.74.74,0,0,0-.77.51,4.69,4.69,0,0,0-.17,1.68,8.7,8.7,0,0,0,.17,1.85.88.88,0,0,0,.89.69,1.47,1.47,0,0,0,.64-.17Zm2.68,4.33a1.94,1.94,0,0,0,.72.17c.5,0,.69-.29.81-.69a9.48,9.48,0,0,0,.17-1.92,4.61,4.61,0,0,0-.17-1.61.69.69,0,0,0-.74-.51,1.43,1.43,0,0,0-.79.24Z"/><polygon class="cls-1" points="99.96 42.16 94.99 34.7 97.48 34.7 94.99 30.97 75.09 30.97 72.6 34.7 75.09 34.7 70.11 42.16 99.96 42.16"/></svg>