<svg id="Слой_1" data-name="Слой 1" xmlns="http://www.w3.org/2000/svg" viewBox="0 0 144.57 49.2"><defs><style>.cls-1{fill:#fff;}</style></defs><title>Знак_P</title><path class="cls-1" d="M117.36,23a5.33,5.33,0,0,0-1.13-2.37,6.16,6.16,0,0,0-7.87-1.58,6.37,6.37,0,0,0-2.5,2.51,7.23,7.23,0,0,0-.66,1.72c0,.19,0,.24.19.26h11.84c.22,0,.26-.07.21-.27S117.37,23.12,117.36,23Z"/><path class="cls-1" d="M49.76,19.39a5.83,5.83,0,0,0-6.3-.4A6.13,6.13,0,0,0,40,24.33a6.45,6.45,0,0,0,.6,2.9,6.27,6.27,0,0,0,5,3.69,5.7,5.7,0,0,0,4.56-1.37,6.19,6.19,0,0,0,2.22-5.91A6,6,0,0,0,49.76,19.39Z"/><path class="cls-1" d="M26.36,21.39a2.4,2.4,0,0,0-.64.46c-1,.91-1.92,1.83-2.89,2.75-.23.22-.24.22-.47,0l-1-1-2.12-2a1.14,1.14,0,0,0-1.9.45,1.13,1.13,0,0,0,.3,1.25l.94.9,3.21,3.09a1.07,1.07,0,0,0,1.17.27,1.71,1.71,0,0,0,.54-.35c.89-.84,1.76-1.68,2.64-2.53.48-.46.95-.93,1.43-1.38a1.17,1.17,0,0,0,.37-.84A1.15,1.15,0,0,0,26.36,21.39Z"/><path class="cls-1" d="M66.36,18.76a5.87,5.87,0,0,0-5.25.27,6.14,6.14,0,0,0-3.31,4.79,6.38,6.38,0,0,0,3.71,6.59,5.75,5.75,0,0,0,5.32-.13,6.19,6.19,0,0,0,3.41-5.63,6,6,0,0,0-.71-3A6.2,6.2,0,0,0,66.36,18.76Z"/><path class="cls-1" d="M136.53,5.73H8A3.42,3.42,0,0,0,4.62,9.15V40A3.42,3.42,0,0,0,8,43.47h128.5A3.42,3.42,0,0,0,140,40V9.15A3.42,3.42,0,0,0,136.53,5.73ZM31.48,23.4a10.29,10.29,0,0,1-.3,2.73,8.64,8.64,0,0,1-1.12,2.43,9,9,0,0,1-9.15,3.85A8.35,8.35,0,0,1,17.58,31a9,9,0,0,1-2.81-3,7.76,7.76,0,0,1-1.06-3.7c0-2,0-4.09,0-6.14a1.58,1.58,0,0,1,1.14-1.43,3.07,3.07,0,0,1,.72-.08h14.1a2.06,2.06,0,0,1,1,.25A1.32,1.32,0,0,1,31.44,18c0,.63,0,1.26,0,1.89C31.49,21.08,31.49,22.24,31.48,23.4ZM52.7,29.7a8.1,8.1,0,0,1-2.17,1.91,8.4,8.4,0,0,1-2.66,1,7.51,7.51,0,0,1-2.89,0,8.56,8.56,0,0,1-2.69-1A9.81,9.81,0,0,1,40,29.85c0,.24,0,.38,0,.52q0,4.41,0,8.83c0,.12,0,.24,0,.38H38.12c0-.15,0-.28,0-.4q0-8.41,0-16.82,0-2.65,0-5.3c0-.1,0-.19,0-.29s.05-.28.28-.28H39.7c.24,0,.27,0,.27.28,0,.62,0,1.24,0,1.85q0,.36,0,.71l.09,0a8.17,8.17,0,0,1,6.42-2.88,7.88,7.88,0,0,1,5.41,2.22A8.16,8.16,0,0,1,52.7,29.7Zm11.38,3.09a8.16,8.16,0,1,1,8.09-8.13A8.13,8.13,0,0,1,64.08,32.79Zm24.38-3.41A7.39,7.39,0,0,1,87,31a7.84,7.84,0,0,1-5.95,1.82A8,8,0,0,1,75,29.12a7.73,7.73,0,0,1-1.28-3.73,8.07,8.07,0,0,1,3.18-7.22,8.3,8.3,0,0,1,4-1.62,6.94,6.94,0,0,1,.94,0,7.58,7.58,0,0,1,5,1.74,8.16,8.16,0,0,1,1.32,1.4.68.68,0,0,1,.06.78.91.91,0,0,1-1.51.24L85.95,20a6,6,0,0,0-2.66-1.5,5.46,5.46,0,0,0-2.3-.11,6.36,6.36,0,0,0-4.58,3.13,6.26,6.26,0,0,0-.85,3,6,6,0,0,0,1.67,4.47,6.16,6.16,0,0,0,7,1.57,6,6,0,0,0,2.5-2,1,1,0,0,1,1.68-.08A.74.74,0,0,1,88.45,29.38Zm14,3.7-7.75-7.67a.75.75,0,0,0-.15.09c-.5.49-1,1-1.5,1.47a.77.77,0,0,0-.25.61c0,1.56,0,3.12,0,4.69,0,.06,0,.12,0,.18,0,.23-.05.28-.28.28H91.2c-.19,0-.26-.09-.26-.27s0-.36,0-.55q0-11,0-21.91V9.67l.3,0h1.16c.42,0,.45,0,.45.46,0,.86,0,1.72,0,2.58q0,5.23,0,10.46c0,.42,0,.85,0,1.27a3,3,0,0,0,0,.32,2.72,2.72,0,0,0,.23-.18L99,18.69c.76-.76,1.53-1.51,2.3-2.27.24-.24.26-.24.49,0l.7.69c.2.2.2.24,0,.44l-1.36,1.36-5,5c-.19.19-.2.23,0,.44l1.32,1.3,4.73,4.72,1.29,1.28c.07.07.12.14.2.24Zm16.11-7.6-12.71,0-.73,0c.07.31.11.57.19.82a6.45,6.45,0,0,0,3.06,3.86,6.06,6.06,0,0,0,7.86-1.61l0-.06a1,1,0,0,1,1.69-.06.64.64,0,0,1,.07.89,8,8,0,0,1-8.3,3.29A8.11,8.11,0,0,1,106,30.76a7.75,7.75,0,0,1-2.39-3.66,8.18,8.18,0,0,1,6.61-10.55,7.78,7.78,0,0,1,4,.44,8.07,8.07,0,0,1,4.35,3.81,8,8,0,0,1,1,3.68C119.54,25.16,119.23,25.48,118.54,25.48Zm12.28,4.67a6.4,6.4,0,0,1-2.14,2.52,3.7,3.7,0,0,1-1.35.51,4.53,4.53,0,0,1-2.3-.11A3.9,3.9,0,0,1,122.71,31a6,6,0,0,1-.56-2.57c0-1.6,0-3.2,0-4.79h0q0-2.27,0-4.54c0-.12,0-.24,0-.36,0-.4,0-.41-.4-.41H120c-.4,0-.41,0-.41-.4s0-.68,0-1,0-.4.42-.4h1.71c.37,0,.39,0,.39-.39q0-1.63,0-3.27c0-.1,0-.19,0-.29s.08-.22.23-.22h1.49a.18.18,0,0,1,.2.2q0,.13,0,.25c0,1.05,0,2.11,0,3.16,0,.55,0,.55.54.55H128c.49,0,.49,0,.49.48,0,.31,0,.63,0,.94s0,.4-.39.4h-3.6c-.44,0-.45,0-.45.44,0,2.82,0,5.64,0,8.46a6.73,6.73,0,0,0,.42,2.64,4.48,4.48,0,0,0,.45.86,1.91,1.91,0,0,0,2.54.61A4,4,0,0,0,129,29.88c.06-.09.11-.19.17-.28a.94.94,0,0,1,1.57-.07A.53.53,0,0,1,130.82,30.15Z"/><path class="cls-1" d="M0,0V49.2H144.57V0ZM141.72,40a5.19,5.19,0,0,1-5.19,5.19H8A5.19,5.19,0,0,1,2.85,40V9.15A5.19,5.19,0,0,1,8,4h128.5a5.19,5.19,0,0,1,5.19,5.19Z"/></svg>