
<svg id="Слой_1" data-name="Слой 1" xmlns="http://www.w3.org/2000/svg" viewBox="0 0 49.2 49.2"><defs><style>.cls-1{fill:#fff;fill-rule:evenodd;}</style></defs><title>Знак_На печать_Принтер</title><path class="cls-1" d="M13.75,42.78H35.5V30.12H13.75Zm12.67-3.62h-9V37.37h9Zm-9-5.42H31.86v1.79H17.38Z"/><path class="cls-1" d="M40.94,19.23A1.81,1.81,0,1,0,42.75,21,1.79,1.79,0,0,0,40.94,19.23Z"/><path class="cls-1" d="M35.49,6.54H13.75v9H35.49Z"/><path class="cls-1" d="M0,0V49.19H49.2V0ZM46.39,37.29a2.19,2.19,0,0,1,0,.25,2,2,0,0,1,0,.27,1.81,1.81,0,0,1-1.83,1.36H39.13v7.24h-29V39.17H4.84a2.57,2.57,0,0,1-.59-.06,1.79,1.79,0,0,1-1.39-1.8c0-6.6,0-13.19,0-19.79a1.89,1.89,0,0,1,1.93-1.94c1.68,0,3.36,0,5,0h.28V15.3q0-6.09,0-12.17c0-.08,0-.15,0-.23v0H39.15v0s0,.06,0,.09q0,6.2,0,12.39c0,.06,0,.13,0,.2h5.37a1.78,1.78,0,0,1,1.82,1.5,2.13,2.13,0,0,1,0,.37Q46.39,27.38,46.39,37.29Z"/></svg>