<?xml-stylesheet type="text/css" href="../style.css"?>   
<svg xmlns="http://www.w3.org/2000/svg" xmlns:xlink="http://www.w3.org/1999/xlink" version="1.1" style="display:none;">
	<symbol id="arrowRight" viewBox="0 0 170 170">
		<polygon points="30,15 150,15  150,135 120,105 120,45 60,45 30,15" fill="#ffffff"></polygon>
	</symbol>
	<symbol id="treeUp1"  viewBox="0 0 49.2 49.2">
		<path d="M0,0V49.2H49.2V0ZM42.77,45.31,24.6,29.55,6.43,45.31V34.68L24.6,18.91,42.77,34.67Zm0-15L24.6,14.52,6.43,30.29V19.66L24.6,3.89,42.77,19.65Z"/>
	</symbol>
	<symbol id="burger" viewBox="0 0 49.2 49.2 ">
		<path  d="M0,0V49.2H49.2V0ZM46.33,40.21A1.29,1.29,0,0,1,45,41.5H4.16a1.29,1.29,0,0,1-1.29-1.29V36.8a1.29,1.29,0,0,1,1.29-1.29H45a1.29,1.29,0,0,1,1.29,1.29Zm0-13.9A1.29,1.29,0,0,1,45,27.6H4.16a1.29,1.29,0,0,1-1.29-1.29V22.9A1.29,1.29,0,0,1,4.16,21.6H45a1.29,1.29,0,0,1,1.29,1.29Zm0-13.9A1.29,1.29,0,0,1,45,13.69H4.16A1.29,1.29,0,0,1,2.87,12.4V9A1.29,1.29,0,0,1,4.16,7.7H45A1.29,1.29,0,0,1,46.33,9Z"/>
	</symbol>
	<symbol id="treeUp2"  viewBox="0 0 49.2 49.2">
<path  d="M0,0V49.2H49.2V0ZM24.6,46.52A21.92,21.92,0,1,1,46.52,24.6,21.94,21.94,0,0,1,24.6,46.52Z"/>
<path  d="M24.6,4.28A20.32,20.32,0,1,0,44.92,24.6,20.34,20.34,0,0,0,24.6,4.28ZM36.53,38.2,24.6,27.85,12.67,38.2v-7L24.6,20.86,36.53,31.21Zm0-9.86L24.6,18,12.67,28.33v-7L24.6,11,36.53,21.35Z"/>
	</symbol>
	<symbol id="doubleTreeLeft" viewBox="0 0 49.2 49.2">
		<path  d="M0,49.2H49.2V0H0ZM45.31,6.43,29.55,24.6,45.31,42.77H34.68L18.91,24.6,34.67,6.43Zm-15,0L14.52,24.6,30.29,42.77H19.66L3.89,24.6,19.65,6.43Z"/>
	</symbol>
	<symbol id="doubleTreeRight" viewBox ="0 0 49.2 49.2">
		<path  d="M49.2,0H0V49.2H49.2ZM3.89,42.77,19.65,24.6,3.89,6.43H14.52L30.29,24.6,14.53,42.77Zm15,0L34.68,24.6,18.91,6.43H29.54L45.31,24.6,29.55,42.77Z"/>
	</symbol>
	<symbol id="calendar" viewBox="0 0 49.2 49.2">
		<path  d="M0,0V49.2H49.2V0ZM22.63,41.4a4.93,4.93,0,0,1-4.91,4.91H7.51A4.93,4.93,0,0,1,2.6,41.4V31.2a4.93,4.93,0,0,1,4.91-4.91h10.2a4.93,4.93,0,0,1,4.91,4.91Zm0-23.4a4.93,4.93,0,0,1-4.91,4.91H7.51A4.93,4.93,0,0,1,2.6,18V7.8A4.93,4.93,0,0,1,7.51,2.89h10.2A4.93,4.93,0,0,1,22.63,7.8Zm24,23.4a4.93,4.93,0,0,1-4.91,4.91H31.49a4.93,4.93,0,0,1-4.91-4.91V31.2a4.93,4.93,0,0,1,4.91-4.91h10.2A4.93,4.93,0,0,1,46.6,31.2Zm0-23.4a4.93,4.93,0,0,1-4.91,4.91H31.49A4.93,4.93,0,0,1,26.57,18V7.8a4.93,4.93,0,0,1,4.91-4.91h10.2A4.93,4.93,0,0,1,46.6,7.8Z"/>
	</symbol>
	<symbol id="convert" viewBox="0 0 49.2 49.2">
		<path d="M0,0V49.2H49.2V0ZM3.48,8.6H45.72a2.57,2.57,0,0,1,1.81.73L24.6,26.88,1.62,9.39A2.55,2.55,0,0,1,3.48,8.6ZM1,38.51v-26l14.47,11L1.14,39Zm44.69,2.14H3.48l-1-.19L17.09,24.75l6.65,5.06.87.29.87-.29,6.68-5.12L46.77,40.42Zm2.45-2.14-.1.39L33.73,23.47l14.44-11Z"/>
	</symbol>
	<symbol id="search" viewBox="0 0 49.2 49.2">
		<path  d="M10.6,41.22A21.73,21.73,0,0,0,41.13,38.7l-33.24-28A21.73,21.73,0,0,0,10.6,41.22Z"/>
		<path d="M38.6,8A21.73,21.73,0,0,0,8,10.61l-.09.11,33.24,28,.09-.11A21.73,21.73,0,0,0,38.6,8Z"/>
		<path  d="M44.86,24.6A20.26,20.26,0,1,1,24.6,4.34,20.28,20.28,0,0,1,44.86,24.6Zm-1.72,0A18.54,18.54,0,1,0,24.6,43.15,18.56,18.56,0,0,0,43.14,24.6Z"/>
		<circle  cx="22.12" cy="21.67" r="5.06" transform="translate(-8.77 23.77) rotate(-48.3)"/>
		<path  d="M34.66,30.85l-6.33-5.64a7.14,7.14,0,1,0-2,2.22l6.33,5.64c.37.33,1.12.11,1.67-.51S35,31.18,34.66,30.85Zm-15.9-5.4A5.06,5.06,0,1,1,25.9,25,5.06,5.06,0,0,1,18.76,25.45Z"/>
	</symbol>
	<symbol id="search2" viewBox="0 0 49.2 49.2">
		<path  d="M0,0V49.2H49.2V0ZM24.6,46.3A21.7,21.7,0,1,1,46.3,24.6,21.73,21.73,0,0,1,24.6,46.3Z"/>
		<path d="M22,16.42h-.3a5.05,5.05,0,1,0,.3,0Z"/>
		<path d="M24.6,5.26A19.34,19.34,0,1,0,43.94,24.6,19.36,19.36,0,0,0,24.6,5.26ZM35.11,33.2a2.21,2.21,0,0,1-1.43.79h-.07a1,1,0,0,1-.65-.23l-6.53-5.82A7.83,7.83,0,0,1,16.14,16.3a7.83,7.83,0,0,1,11.05-.64,7.86,7.86,0,0,1,1.7,9.52L35.42,31C35.93,31.46,35.8,32.43,35.11,33.2Z"/>
	</symbol>
	<symbol id="print" viewBox="0 0 49.2 49.2">
		<path  d="M13.75,42.78H35.5V30.12H13.75Zm12.67-3.62h-9V37.37h9Zm-9-5.42H31.86v1.79H17.38Z"/>
		<path  d="M40.94,19.23A1.81,1.81,0,1,0,42.75,21,1.79,1.79,0,0,0,40.94,19.23Z"/>
		<path  d="M35.49,6.54H13.75v9H35.49Z"/>
		<path  d="M0,0V49.19H49.2V0ZM46.39,37.29a2.19,2.19,0,0,1,0,.25,2,2,0,0,1,0,.27,1.81,1.81,0,0,1-1.83,1.36H39.13v7.24h-29V39.17H4.84a2.57,2.57,0,0,1-.59-.06,1.79,1.79,0,0,1-1.39-1.8c0-6.6,0-13.19,0-19.79a1.89,1.89,0,0,1,1.93-1.94c1.68,0,3.36,0,5,0h.28V15.3q0-6.09,0-12.17c0-.08,0-.15,0-.23v0H39.15v0s0,.06,0,.09q0,6.2,0,12.39c0,.06,0,.13,0,.2h5.37a1.78,1.78,0,0,1,1.82,1.5,2.13,2.13,0,0,1,0,.37Q46.39,27.38,46.39,37.29Z"/>
	</symbol>
	<symbol id="fb" viewBox="0 0 49.2 49.2">
		<path d="M0,0V49.2H49.2V0ZM46.71,44.34a2,2,0,0,1-2,2H33.29V28.89H39.1v-6H33.29v-5c0-1.46,2-2.65,3.42-2.65h3V9.78H33.24a6.73,6.73,0,0,0-6.42,6.55v6.54H21.06v6h5.76V46.36H4.51a2,2,0,0,1-2-2V4.85a2,2,0,0,1,2-2H44.69a2,2,0,0,1,2,2Z"/>
	</symbol>
	<symbol id="ytb" viewBox="0 0 49.2 49.2">
		<polygon  points="20.51 31.51 32.19 23.82 20.51 16.13 20.51 31.51"/>
		<path  d="M0,0V49.2H49.2V0ZM45,32.79a6.11,6.11,0,0,1-6.11,6.11H10.28a6.11,6.11,0,0,1-6.11-6.11V16.41a6.11,6.11,0,0,1,6.11-6.11H38.92A6.11,6.11,0,0,1,45,16.41Z"/>
	</symbol>
	<symbol id="vk" viewBox="0 0 49.2 49.2">
		<path d="M0,0V49.2H49.2V0ZM24.6,46.32A21.71,21.71,0,1,1,46.32,24.6,21.74,21.74,0,0,1,24.6,46.32Z"/>
		<path d="M24.6,4.89A19.71,19.71,0,1,0,44.32,24.6,19.74,19.74,0,0,0,24.6,4.89Zm9.24,27.23H31.5c-.89,0-1.16-.71-2.75-2.3-1.39-1.34-2-1.52-2.34-1.52s-.61.13-.61.8v2.1c0,.58-.18.91-1.68.91-2.49,0-5.22-1.51-7.16-4.29-2.91-4.08-3.7-7.16-3.7-7.78,0-.35.13-.66.8-.66h2.35c.6,0,.83.26,1.05.91,1.15,3.34,3.08,6.26,3.88,6.26.3,0,.44-.14.44-.89V22.21c-.09-1.59-.93-1.72-.93-2.29a.57.57,0,0,1,.6-.54h3.69c.5,0,.67.27.67.86v4.65c0,.5.22.67.36.67s.55-.17,1.09-.72A19.63,19.63,0,0,0,30.14,20a1,1,0,0,1,1-.66h2.35c.71,0,.86.37.71.86-.3,1.37-3.16,5.39-3.16,5.39-.25.4-.35.6,0,1s1.07,1,1.62,1.69a10.07,10.07,0,0,1,2,2.75C34.85,31.78,34.51,32.12,33.84,32.12Z"/>
	</symbol>
	<symbol id="pocket" viewBox="0 0 49.2 49.2">
		<path  d="M117.36,23a5.33,5.33,0,0,0-1.13-2.37,6.16,6.16,0,0,0-7.87-1.58,6.37,6.37,0,0,0-2.5,2.51,7.23,7.23,0,0,0-.66,1.72c0,.19,0,.24.19.26h11.84c.22,0,.26-.07.21-.27S117.37,23.12,117.36,23Z"/>
<path  d="M49.76,19.39a5.83,5.83,0,0,0-6.3-.4A6.13,6.13,0,0,0,40,24.33a6.45,6.45,0,0,0,.6,2.9,6.27,6.27,0,0,0,5,3.69,5.7,5.7,0,0,0,4.56-1.37,6.19,6.19,0,0,0,2.22-5.91A6,6,0,0,0,49.76,19.39Z"/>
<path  d="M26.36,21.39a2.4,2.4,0,0,0-.64.46c-1,.91-1.92,1.83-2.89,2.75-.23.22-.24.22-.47,0l-1-1-2.12-2a1.14,1.14,0,0,0-1.9.45,1.13,1.13,0,0,0,.3,1.25l.94.9,3.21,3.09a1.07,1.07,0,0,0,1.17.27,1.71,1.71,0,0,0,.54-.35c.89-.84,1.76-1.68,2.64-2.53.48-.46.95-.93,1.43-1.38a1.17,1.17,0,0,0,.37-.84A1.15,1.15,0,0,0,26.36,21.39Z"/>
<path  d="M66.36,18.76a5.87,5.87,0,0,0-5.25.27,6.14,6.14,0,0,0-3.31,4.79,6.38,6.38,0,0,0,3.71,6.59,5.75,5.75,0,0,0,5.32-.13,6.19,6.19,0,0,0,3.41-5.63,6,6,0,0,0-.71-3A6.2,6.2,0,0,0,66.36,18.76Z"/>
<path  d="M136.53,5.73H8A3.42,3.42,0,0,0,4.62,9.15V40A3.42,3.42,0,0,0,8,43.47h128.5A3.42,3.42,0,0,0,140,40V9.15A3.42,3.42,0,0,0,136.53,5.73ZM31.48,23.4a10.29,10.29,0,0,1-.3,2.73,8.64,8.64,0,0,1-1.12,2.43,9,9,0,0,1-9.15,3.85A8.35,8.35,0,0,1,17.58,31a9,9,0,0,1-2.81-3,7.76,7.76,0,0,1-1.06-3.7c0-2,0-4.09,0-6.14a1.58,1.58,0,0,1,1.14-1.43,3.07,3.07,0,0,1,.72-.08h14.1a2.06,2.06,0,0,1,1,.25A1.32,1.32,0,0,1,31.44,18c0,.63,0,1.26,0,1.89C31.49,21.08,31.49,22.24,31.48,23.4ZM52.7,29.7a8.1,8.1,0,0,1-2.17,1.91,8.4,8.4,0,0,1-2.66,1,7.51,7.51,0,0,1-2.89,0,8.56,8.56,0,0,1-2.69-1A9.81,9.81,0,0,1,40,29.85c0,.24,0,.38,0,.52q0,4.41,0,8.83c0,.12,0,.24,0,.38H38.12c0-.15,0-.28,0-.4q0-8.41,0-16.82,0-2.65,0-5.3c0-.1,0-.19,0-.29s.05-.28.28-.28H39.7c.24,0,.27,0,.27.28,0,.62,0,1.24,0,1.85q0,.36,0,.71l.09,0a8.17,8.17,0,0,1,6.42-2.88,7.88,7.88,0,0,1,5.41,2.22A8.16,8.16,0,0,1,52.7,29.7Zm11.38,3.09a8.16,8.16,0,1,1,8.09-8.13A8.13,8.13,0,0,1,64.08,32.79Zm24.38-3.41A7.39,7.39,0,0,1,87,31a7.84,7.84,0,0,1-5.95,1.82A8,8,0,0,1,75,29.12a7.73,7.73,0,0,1-1.28-3.73,8.07,8.07,0,0,1,3.18-7.22,8.3,8.3,0,0,1,4-1.62,6.94,6.94,0,0,1,.94,0,7.58,7.58,0,0,1,5,1.74,8.16,8.16,0,0,1,1.32,1.4.68.68,0,0,1,.06.78.91.91,0,0,1-1.51.24L85.95,20a6,6,0,0,0-2.66-1.5,5.46,5.46,0,0,0-2.3-.11,6.36,6.36,0,0,0-4.58,3.13,6.26,6.26,0,0,0-.85,3,6,6,0,0,0,1.67,4.47,6.16,6.16,0,0,0,7,1.57,6,6,0,0,0,2.5-2,1,1,0,0,1,1.68-.08A.74.74,0,0,1,88.45,29.38Zm14,3.7-7.75-7.67a.75.75,0,0,0-.15.09c-.5.49-1,1-1.5,1.47a.77.77,0,0,0-.25.61c0,1.56,0,3.12,0,4.69,0,.06,0,.12,0,.18,0,.23-.05.28-.28.28H91.2c-.19,0-.26-.09-.26-.27s0-.36,0-.55q0-11,0-21.91V9.67l.3,0h1.16c.42,0,.45,0,.45.46,0,.86,0,1.72,0,2.58q0,5.23,0,10.46c0,.42,0,.85,0,1.27a3,3,0,0,0,0,.32,2.72,2.72,0,0,0,.23-.18L99,18.69c.76-.76,1.53-1.51,2.3-2.27.24-.24.26-.24.49,0l.7.69c.2.2.2.24,0,.44l-1.36,1.36-5,5c-.19.19-.2.23,0,.44l1.32,1.3,4.73,4.72,1.29,1.28c.07.07.12.14.2.24Zm16.11-7.6-12.71,0-.73,0c.07.31.11.57.19.82a6.45,6.45,0,0,0,3.06,3.86,6.06,6.06,0,0,0,7.86-1.61l0-.06a1,1,0,0,1,1.69-.06.64.64,0,0,1,.07.89,8,8,0,0,1-8.3,3.29A8.11,8.11,0,0,1,106,30.76a7.75,7.75,0,0,1-2.39-3.66,8.18,8.18,0,0,1,6.61-10.55,7.78,7.78,0,0,1,4,.44,8.07,8.07,0,0,1,4.35,3.81,8,8,0,0,1,1,3.68C119.54,25.16,119.23,25.48,118.54,25.48Zm12.28,4.67a6.4,6.4,0,0,1-2.14,2.52,3.7,3.7,0,0,1-1.35.51,4.53,4.53,0,0,1-2.3-.11A3.9,3.9,0,0,1,122.71,31a6,6,0,0,1-.56-2.57c0-1.6,0-3.2,0-4.79h0q0-2.27,0-4.54c0-.12,0-.24,0-.36,0-.4,0-.41-.4-.41H120c-.4,0-.41,0-.41-.4s0-.68,0-1,0-.4.42-.4h1.71c.37,0,.39,0,.39-.39q0-1.63,0-3.27c0-.1,0-.19,0-.29s.08-.22.23-.22h1.49a.18.18,0,0,1,.2.2q0,.13,0,.25c0,1.05,0,2.11,0,3.16,0,.55,0,.55.54.55H128c.49,0,.49,0,.49.48,0,.31,0,.63,0,.94s0,.4-.39.4h-3.6c-.44,0-.45,0-.45.44,0,2.82,0,5.64,0,8.46a6.73,6.73,0,0,0,.42,2.64,4.48,4.48,0,0,0,.45.86,1.91,1.91,0,0,0,2.54.61A4,4,0,0,0,129,29.88c.06-.09.11-.19.17-.28a.94.94,0,0,1,1.57-.07A.53.53,0,0,1,130.82,30.15Z"/>
<path  d="M0,0V49.2H144.57V0ZM141.72,40a5.19,5.19,0,0,1-5.19,5.19H8A5.19,5.19,0,0,1,2.85,40V9.15A5.19,5.19,0,0,1,8,4h128.5a5.19,5.19,0,0,1,5.19,5.19Z"/>
	</symbol>

	<symbol id="backMaterials" viewBox="0 0 49.2 49.2">
		<path  d="M0,0V40.46H167.74V0ZM164.9,33.94a3.68,3.68,0,0,1-3.68,3.68H6.53a3.68,3.68,0,0,1-3.68-3.68V6.52A3.68,3.68,0,0,1,6.53,2.84H161.22a3.68,3.68,0,0,1,3.68,3.68Z"/>
<path d="M19.67,11.9V25.15H18.49V19H13.78v6.19H12.61V11.9h1.17v6h4.71v-6Z"/>
<path  d="M28.34,18.28v6.87h-1l-.09-.93A2.66,2.66,0,0,1,25,25.38a2.91,2.91,0,0,1-3.14-3c0-1.91,1.23-3,3.41-3h2V18.3c0-1.46-.68-2.23-2-2.23a1.81,1.81,0,0,0-2,1.74H22.15A2.89,2.89,0,0,1,25.29,15C27.18,15,28.34,16.26,28.34,18.28Zm-1.12,4.07V20.4h-2c-1.46,0-2.23.68-2.23,1.95s.89,1.93,2.18,1.93A1.88,1.88,0,0,0,27.22,22.35Z"/>
<path  d="M36.66,22.31a3,3,0,0,1-3.27,3,3.09,3.09,0,0,1-3.39-3h1.12a2,2,0,0,0,2.27,1.87,1.9,1.9,0,0,0,2.14-2c0-1-.79-1.72-2.19-1.72H31.89v-1h1.36c1.17,0,2-.55,2-1.63a1.68,1.68,0,0,0-1.87-1.7,1.78,1.78,0,0,0-2,1.93H30.23a2.84,2.84,0,0,1,3.12-3,2.82,2.82,0,0,1,3,2.69A2.25,2.25,0,0,1,35,19.95,2.53,2.53,0,0,1,36.66,22.31Z"/>
<path  d="M44.44,18.28v6.87h-1l-.09-.93a2.66,2.66,0,0,1-2.29,1.15,2.91,2.91,0,0,1-3.14-3c0-1.91,1.23-3,3.41-3h2V18.3c0-1.46-.68-2.23-2-2.23a1.81,1.81,0,0,0-2,1.74H38.25A2.89,2.89,0,0,1,41.39,15C43.29,15,44.44,16.26,44.44,18.28Zm-1.12,4.07V20.4h-2c-1.46,0-2.23.68-2.23,1.95s.89,1.93,2.18,1.93A1.88,1.88,0,0,0,43.32,22.35Z"/>
<path d="M45.69,24.09h.72a12.06,12.06,0,0,0,1-4.48c.09-1.48.15-2.91.17-4.39h5.15v8.87h1.1v3.24h-1.1V25.15H46.79v2.18h-1.1Zm5.9,0V16.27h-3c0,1.17-.06,2.33-.15,3.5a14.88,14.88,0,0,1-.83,4.31Z"/>
<path  d="M61.59,20.4l-.78.95v3.8H59.69V15.21h1.12v4.5c.49-.59,1-1.19,1.48-1.8l2.21-2.71h1.44l-3.61,4.31,4.11,5.62H65Z"/>
<path  d="M79.7,15.21v9.93H78.62V19.68c0-1,.08-1.68.09-2.44l-.06,0c-.27.76-.55,1.55-.87,2.29l-1.36,3H75.29l-1.36-3c-.32-.74-.61-1.53-.87-2.29l-.06,0c0,.76.09,1.48.09,2.44v5.47H72V15.21h1.15l2,4.52c.21.53.44,1,.64,1.57h0c.21-.53.44-1,.64-1.57l2-4.52Z"/>
<path  d="M88.16,18.28v6.87h-1l-.09-.93a2.66,2.66,0,0,1-2.29,1.15,2.91,2.91,0,0,1-3.14-3c0-1.91,1.23-3,3.41-3h2V18.3c0-1.46-.68-2.23-2-2.23a1.81,1.81,0,0,0-2,1.74H82A2.89,2.89,0,0,1,85.11,15C87,15,88.16,16.26,88.16,18.28ZM87,22.35V20.4H85c-1.46,0-2.23.68-2.23,1.95s.89,1.93,2.18,1.93A1.88,1.88,0,0,0,87,22.35Z"/>
<path  d="M95.44,16.26H93v8.89H91.87V16.26H89.41v-1h6Z"/>
<path  d="M102.92,22.1a3.17,3.17,0,0,1-3.46,3.24c-1.93,0-3.2-1.27-3.2-3.54V18.53c0-2.27,1.29-3.54,3.22-3.54s3.31,1.27,3.31,3.54v2.19H97.39V21.8c0,1.66.79,2.44,2.1,2.44a2.06,2.06,0,0,0,2.31-2.14Zm-5.53-3.58v1.15h4.28V18.53c0-1.66-.81-2.44-2.18-2.44S97.39,16.86,97.39,18.53Z"/>
<path  d="M111.51,18.79v2.86c0,2.46-1.17,3.73-3.08,3.73a2.8,2.8,0,0,1-2.31-1.12v4.3H105V15.21h.91l.15.93A2.83,2.83,0,0,1,108.43,15C110.22,15,111.51,16.27,111.51,18.79Zm-1.14,0c0-1.95-.81-2.76-2.19-2.76-1.14,0-2.06.87-2.06,2.72v2.89c0,1.59.81,2.69,2.06,2.69,1.46,0,2.19-.79,2.19-2.69Z"/>
<path  d="M113.76,15.21h1.12v5.68c0,.74,0,1.5,0,2.23l0,0c.17-.4.47-1.08.66-1.48l3.18-6.47h1.15v9.93h-1.12V19.79c0-1,0-1.85.08-2.65l0,0a15.72,15.72,0,0,1-.79,1.8l-3.08,6.23h-1.15Z"/>
<path  d="M128.33,18.28v6.87h-1l-.09-.93A2.66,2.66,0,0,1,125,25.38a2.91,2.91,0,0,1-3.14-3c0-1.91,1.23-3,3.41-3h2V18.3c0-1.46-.68-2.23-2-2.23a1.81,1.81,0,0,0-2,1.74h-1.12A2.89,2.89,0,0,1,125.29,15C127.18,15,128.33,16.26,128.33,18.28Zm-1.12,4.07V20.4h-2c-1.46,0-2.23.68-2.23,1.95s.89,1.93,2.18,1.93A1.88,1.88,0,0,0,127.22,22.35Z"/>
<path  d="M129.68,24.15c1.17,0,1.38-1.61,1.51-3.6.11-1.84.15-3.48.19-5.34h5.11v9.93h-1.12V16.27h-2.89c0,1.48-.13,3.37-.19,4.45-.17,3-.83,4.5-2.61,4.5Z"/>
<path  d="M145,18.28v6.87h-1l-.09-.93a2.66,2.66,0,0,1-2.29,1.15,2.91,2.91,0,0,1-3.14-3c0-1.91,1.23-3,3.41-3h2V18.3c0-1.46-.68-2.23-2-2.23a1.81,1.81,0,0,0-2,1.74h-1.12A2.89,2.89,0,0,1,141.91,15C143.8,15,145,16.26,145,18.28Zm-1.12,4.07V20.4h-2c-1.46,0-2.23.68-2.23,1.95s.89,1.93,2.18,1.93A1.88,1.88,0,0,0,143.84,22.35Z"/>
<path  d="M155.13,15.21v9.93h-1.08V19.68c0-1,.08-1.68.09-2.44l-.06,0c-.27.76-.55,1.55-.87,2.29l-1.36,3h-1.14l-1.36-3c-.32-.74-.61-1.53-.87-2.29l-.06,0c0,.76.09,1.48.09,2.44v5.47h-1.08V15.21h1.15l2,4.52c.21.53.44,1,.64,1.57h0c.21-.53.44-1,.64-1.57l2-4.52Z"/>
	</symbol>
	<symbol id="ornament" viewBox="0 0 49.2 49.2">
		<path  d="M0,0V49.2H49.2V0ZM7.46,46.37,2.83,39.43V32.15l9.48,14.22Zm9.71,0L2.83,24.86v-7.3L22,46.37Zm9.72,0L2.83,10.28V3L31.75,46.37Zm9.72,0L7.6,2.83h4.86l29,43.53Zm9.76,0h0l-29-43.53h4.87l24.19,36.3Zm0-14.52L27,2.83h4.86L46.37,24.56Zm0-14.58L36.75,2.83h4.86L46.37,10Z"/>
	</symbol>
	<symbol id="home" viewBox="0 0 49.2 49.2">
		<path d="M0,0V49.2H49.2V0ZM10.83,3.22V2.83h12l-.52.67L11.43,16.37l-.61-.19ZM41,28.08V46.36H27.32V34.16H21.88v12.2H8.33V28.08H2.88L24.64,3.71,46.41,28.08Z"/>
	</symbol>

</svg>